<?xml version="1.0" encoding="UTF-8"?>
<!DOCTYPE svg PUBLIC "-//W3C//DTD SVG 1.1//EN" "http://www.w3.org/Graphics/SVG/1.1/DTD/svg11.dtd">
<svg version="1.1" xmlns="http://www.w3.org/2000/svg" xmlns:xlink="http://www.w3.org/1999/xlink" x="0" y="0" width="300" height="300" viewBox="0, 0, 300, 300">
  <g id="Layer_1">
    <path d="M0,0 L1,0 L1,1 L0,1 z" fill="#000000"/>
    <g>
      <path d="M153,150 C153,151.657 151.657,153 150,153 C148.343,153 147,151.657 147,150 C147,148.343 148.343,147 150,147 C151.657,147 153,148.343 153,150 z" fill="#FFFFFF"/>
      <path d="M153,150 C153,151.657 151.657,153 150,153 C148.343,153 147,151.657 147,150 C147,148.343 148.343,147 150,147 C151.657,147 153,148.343 153,150 z" fill-opacity="0" stroke="#FFFFFF" stroke-width="2"/>
    </g>
    <path d="M150,150 C150,150 160,130 170,150 C180,170 190,170 210,150 C230,130 230,130 250,150" fill-opacity="0" stroke="#FFFFFF" stroke-width="2"/>
    <path d="M170,150 C170,161.046 161.046,170 150,170 C138.954,170 130,161.046 130,150 C130,138.954 138.954,130 150,130 C161.046,130 170,138.954 170,150 z" fill-opacity="0" stroke="#FFFFFF" stroke-width="2"/>
    <path d="M190,150 C190,172.091 172.091,190 150,190 C127.909,190 110,172.091 110,150 C110,127.909 127.909,110 150,110 C172.091,110 190,127.909 190,150 z" fill-opacity="0" stroke="#FFFFFF" stroke-width="2"/>
    <path d="M210,150 C210,183.137 183.137,210 150,210 C116.863,210 90,183.137 90,150 C90,116.863 116.863,90 150,90 C183.137,90 210,116.863 210,150 z" fill-opacity="0" stroke="#FFFFFF" stroke-width="2"/>
    <path d="M230,150 C230,194.183 194.183,230 150,230 C105.817,230 70,194.183 70,150 C70,105.817 105.817,70 150,70 C194.183,70 230,105.817 230,150 z" fill-opacity="0" stroke="#FFFFFF" stroke-width="2"/>
    <g>
      <path d="M150,150 L230,70" fill="#000000"/>
      <path d="M150,150 L230,70" fill-opacity="0" stroke="#FFFFFF" stroke-width="2"/>
    </g>
    <g>
      <path d="M150,150 L70,230" fill="#000000"/>
      <path d="M150,150 L70,230" fill-opacity="0" stroke="#FFFFFF" stroke-width="2"/>
    </g>
    <g>
      <path d="M150,150 L250,150" fill="#000000"/>
      <path d="M150,150 L250,150" fill-opacity="0" stroke="#FFFFFF" stroke-width="2"/>
    </g>
    <g>
      <path d="M150,150 L150,250" fill="#000000"/>
      <path d="M150,150 L150,250" fill-opacity="0" stroke="#FFFFFF" stroke-width="2"/>
    </g>
    <text transform="matrix(1, 0, 0, 1, 150, 54.5)">
      <tspan x="-39.588" y="6.5" font-family="Gibson-Regular" font-size="24" fill="#FFFFFF">ORIGIN</tspan>
    </text>
    <text transform="matrix(-1, 0, -0, -1, 150, 265.5)">
      <tspan x="-48.528" y="6.5" font-family="Gibson-Regular" font-size="24" fill="#FFFFFF">MATTERS</tspan>
    </text>
  </g>
</svg>
