<?xml version="1.0" encoding="UTF-8"?>
<svg id="Layer_1" xmlns="http://www.w3.org/2000/svg" viewBox="0 0 728.31 210.87">
  <defs>
    <style>
      .cls-1 {
        fill: #00C3EF;
      }

      .cls-2 {
        fill: #102f44;
      }

      .cls-3 {
        fill: #0fbeed;
      }
    </style>
  </defs>
  <g>
    <g>
      <path class="cls-2" d="M280.36.15h-16.89c-11.55-.09-20.38,2.85-26.17,8.79-5.75,5.91-8.67,15.05-8.67,27.18v33.93c0,12.02,2.9,21.13,8.62,27.09,5.75,5.99,14.56,9.03,26.19,9.03h16.92c11.67,0,20.5-3.04,26.23-9.04,5.69-5.96,8.58-15.07,8.58-27.08v-33.78c0-12.07-2.89-21.19-8.58-27.13-5.73-5.97-14.55-8.99-26.22-8.99ZM246.92,36.12c0-4.79.54-8.54,1.59-11.12.9-2.19,2.34-3.69,4.42-4.57,2.34-1,5.68-1.51,9.97-1.51.18,0,.35,0,.53,0h16.92c4.55,0,8.1.55,10.54,1.63,2.09.93,3.54,2.45,4.42,4.65,1.04,2.59,1.57,6.31,1.57,11.07v33.78c0,4.8-.53,8.55-1.57,11.14-.88,2.19-2.32,3.69-4.39,4.6-2.45,1.07-6,1.6-10.56,1.6h-16.92c-4.56,0-8.11-.54-10.56-1.6-2.08-.9-3.52-2.41-4.39-4.6-1.04-2.59-1.57-6.33-1.57-11.14v-33.93Z"/>
      <path class="cls-2" d="M384.41.15h-32.99c-5.73,0-9.14,3.51-9.14,9.39v87.24c0,5.88,3.42,9.39,9.14,9.39s9.14-3.51,9.14-9.39v-30.27h14.66l20.97,36.35c1.42,2.33,3.27,3.82,5.48,4.43.57.16,1.26.28,2.04.28,1.42,0,3.15-.39,5.04-1.65,4.68-3.07,5.89-7.64,3.34-12.55l-16.39-28.48c5.31-1.68,9.58-4.63,12.72-8.82,3.89-5.18,5.86-12.09,5.86-20.55v-4.41c0-9.78-2.61-17.46-7.77-22.83-5.19-5.41-12.63-8.15-22.1-8.15ZM395.99,31.13v4.41c0,4.63-.86,7.97-2.49,9.67-1.59,1.66-4.74,2.53-9.1,2.53h-23.85v-28.81h23.85c4.42,0,7.47.86,9.09,2.56,1.63,1.72,2.5,5.05,2.5,9.64Z"/>
      <path class="cls-2" d="M447.15.3c-2.91,0-5.19.82-6.77,2.43-1.57,1.6-2.37,3.94-2.37,6.96v87.09c0,2.96.79,5.28,2.34,6.89,1.59,1.66,3.88,2.5,6.8,2.5s5.29-.85,6.86-2.52c1.51-1.61,2.28-3.92,2.28-6.86V9.68c0-3-.78-5.33-2.31-6.93-1.57-1.63-3.87-2.46-6.83-2.46Z"/>
      <path class="cls-2" d="M558,50.52l-16.95-.15c-5.72,0-9.14,3.51-9.14,9.39s3.42,9.39,9.1,9.39l7.82.1v3.73c0,4.23-.42,7.47-1.26,9.63-.67,1.72-1.75,2.84-3.39,3.51-2.07.84-5.11,1.27-9.04,1.27h-16.92c-4.56,0-8.11-.54-10.56-1.6-2.08-.9-3.52-2.41-4.39-4.6-1.04-2.59-1.57-6.33-1.57-11.14v-33.78c0-4.85.53-8.64,1.57-11.26.88-2.2,2.3-3.7,4.34-4.58,2.41-1.04,5.91-1.55,10.46-1.5h17.06c6.05,0,8.95,1.01,10.32,1.86,1.62,1.01,2.62,3.26,2.99,6.81.78,5.69,4.2,8.95,9.39,8.95,2.87,0,5.17-.88,6.84-2.61,1.19-1.24,2.5-3.51,2.01-7.29-.84-9-3.96-15.76-9.27-20.09-5.22-4.26-12.71-6.42-22.27-6.42h-17.03c-.2,0-.4,0-.59,0-11.3,0-19.88,2.99-25.52,8.89-5.69,5.95-8.58,15.12-8.58,27.23v33.78c0,12.02,2.9,21.13,8.62,27.09,5.75,5.99,14.56,9.03,26.19,9.03h16.92c10.72,0,18.83-2.74,24.09-8.13,5.24-5.37,7.89-13.8,7.89-25.05v-13.07c0-5.88-3.42-9.39-9.12-9.39Z"/>
      <path class="cls-2" d="M602.03.3c-2.91,0-5.19.82-6.77,2.43-1.57,1.6-2.37,3.94-2.37,6.96v87.09c0,2.96.79,5.28,2.34,6.89,1.59,1.66,3.88,2.5,6.8,2.5s5.29-.85,6.86-2.52c1.51-1.61,2.28-3.92,2.28-6.86V9.68c0-3-.78-5.33-2.31-6.93-1.57-1.63-3.87-2.46-6.83-2.46Z"/>
      <path class="cls-2" d="M716.38.15c-5.72,0-9.14,3.51-9.14,9.39v59.89l-47.97-64.38c-2.56-3.25-5.41-4.9-8.45-4.9-5.72,0-9.14,3.51-9.14,9.39v87.24c0,5.88,3.42,9.39,9.14,9.39s9.14-3.51,9.14-9.39v-59.89l47.92,64.32c2.46,3.29,5.32,4.96,8.5,4.96,5.72,0,9.14-3.51,9.14-9.39V9.54c0-5.88-3.42-9.39-9.14-9.39Z"/>
    </g>
    <g>
      <path class="cls-3" d="M294.18,133.72c-2.62,0-4.61,1.1-5.91,3.26l-23.47,36.77-23.47-36.78c-1.42-2.16-3.23-3.25-5.38-3.25-3.31,0-5.07,1.82-5.07,5.25v65.16c0,3.44,1.75,5.25,5.07,5.25s5.07-1.82,5.07-5.25v-48.75l18.3,28.05c1.42,2.16,3.05,3.25,4.86,3.25,2.5,0,4.49-1.09,5.91-3.25l18.19-27.89v48.59c0,3.44,1.75,5.25,5.07,5.25s5.07-1.82,5.07-5.25v-65.16c0-4.34-2.3-5.25-4.22-5.25Z"/>
      <path class="cls-3" d="M354.92,137.77c-.9-2.57-2.65-3.93-5.24-4.05h-.21c-2.52,0-4.38,1.35-5.55,4.03l-25.06,64.28c-1.25,3.22-.26,5.59,2.88,6.86.86.37,1.67.56,2.41.56.53,0,1.03-.1,1.49-.29,1.14-.48,2.02-1.54,2.64-3.16l5.27-13.95h31.92l5.52,13.96c.61,1.57,1.49,2.62,2.62,3.11,1.12.48,2.48.41,4.02-.22,3.07-1.27,4.03-3.64,2.77-6.87l-25.47-64.26ZM361.32,181.55h-23.81l11.66-30.81,12.15,30.81Z"/>
      <path class="cls-3" d="M438.98,133.83h-49.7c-1.65,0-2.92.45-3.78,1.35-.85.89-1.29,2.2-1.29,3.9s.43,3.01,1.29,3.9c.86.89,2.13,1.35,3.78,1.35h19.78v59.8c0,1.7.43,3.01,1.29,3.9.86.89,2.13,1.35,3.78,1.35s2.88-.47,3.76-1.41c.87-.92,1.31-2.22,1.31-3.84v-59.8h19.79c1.65,0,2.92-.45,3.78-1.35.85-.89,1.28-2.2,1.28-3.9s-.43-3.01-1.28-3.9c-.86-.9-2.13-1.35-3.78-1.35Z"/>
      <path class="cls-3" d="M509.32,133.83h-49.7c-1.65,0-2.92.45-3.78,1.35-.85.89-1.29,2.2-1.29,3.9s.43,3.01,1.29,3.9c.86.89,2.13,1.35,3.78,1.35h19.78v59.8c0,1.7.43,3.01,1.29,3.9.86.89,2.13,1.35,3.78,1.35s2.88-.47,3.76-1.41c.87-.92,1.31-2.22,1.31-3.84v-59.8h19.79c1.65,0,2.92-.45,3.78-1.35.85-.89,1.28-2.2,1.28-3.9s-.43-3.01-1.28-3.9c-.86-.9-2.13-1.35-3.78-1.35Z"/>
      <path class="cls-3" d="M575.66,144.22c3.32,0,5.07-1.82,5.07-5.25s-1.75-5.25-5.07-5.25h-37.8c-3.31,0-5.07,1.82-5.07,5.25v65.16c0,3.44,1.75,5.25,5.07,5.25h37.8c3.32,0,5.07-1.82,5.07-5.25s-1.75-5.25-5.07-5.25h-32.74v-22.4h20.31c3.31,0,5.07-1.82,5.07-5.25s-1.75-5.25-5.07-5.25h-20.31v-21.75h32.74Z"/>
      <path class="cls-3" d="M631.68,133.72h-24.64c-3.31,0-5.07,1.82-5.07,5.25v65.16c0,3.44,1.75,5.25,5.07,5.25s5.07-1.82,5.07-5.25v-24.37h13.72l16.15,27.99c.82,1.34,1.85,2.2,3.06,2.53.35.1.7.14,1.06.14.91,0,1.84-.31,2.79-.94,2.73-1.79,3.39-4.24,1.89-7.11l-13.34-23.18c4.62-.97,8.25-3.16,10.77-6.52,2.67-3.55,4.03-8.36,4.03-14.29v-3.29c0-6.83-1.79-12.16-5.31-15.83-3.53-3.68-8.66-5.55-15.23-5.55ZM642.1,155.1v3.29c0,3.98-.79,6.82-2.35,8.44-1.55,1.62-4.27,2.44-8.07,2.44h-19.57v-25.04h19.57c3.8,0,6.51.83,8.06,2.46,1.56,1.64,2.35,4.47,2.35,8.41Z"/>
      <path class="cls-3" d="M723.05,170.78c-3.5-3.62-8.85-5.46-15.92-5.46h-13.06c-4,0-6.71-.74-8.06-2.2-1.36-1.48-2.04-4.32-2.04-8.45s.67-6.89,1.99-8.31c1.31-1.41,4-2.12,8-2.12h12.53c3.04,0,5.34.37,6.82,1.11,1.42.71,2.36,2.01,2.86,3.93.23,1.59.74,2.83,1.53,3.69.83.9,2.05,1.36,3.63,1.36,1.72,0,3.05-.48,3.95-1.44.91-.97,1.25-2.35,1.01-4.14-.87-5.05-2.98-8.85-6.28-11.32-3.28-2.45-7.83-3.69-13.52-3.69h-12.53c-6.79,0-11.89,1.75-15.18,5.19-3.28,3.44-4.94,8.73-4.94,15.75s1.68,12.39,4.99,15.88c3.32,3.5,8.45,5.27,15.24,5.27h13.06c4.22,0,7.15.81,8.7,2.41,1.56,1.6,2.35,4.71,2.35,9.23s-.76,7.5-2.27,9.07c-1.5,1.56-4.45,2.35-8.78,2.35h-15.16c-3.46,0-6.04-.44-7.67-1.32-1.58-.85-2.58-2.4-3.06-4.72-.27-1.66-.79-2.91-1.56-3.74-.81-.86-2.06-1.3-3.71-1.3s-2.94.47-3.83,1.41c-.9.94-1.28,2.33-1.12,4.17.87,5.41,3.07,9.48,6.54,12.09,3.45,2.6,8.3,3.91,14.42,3.91h15.16c7.1,0,12.46-1.81,15.94-5.38,3.48-3.56,5.24-9.13,5.24-16.55s-1.77-13.06-5.26-16.68Z"/>
    </g>
  </g>
  <g>
    <rect class="cls-1" width="156.23" height="30.64" rx="5.19" ry="5.19"/>
    <path class="cls-2" d="M151.22,134.81l-68.01,39.33c-2.87,1.66-6.4,1.68-9.28.05l-37.55-21.22c-3.54-2-5.73-5.75-5.73-9.81v-66.55c0-3.46,2.8-6.26,6.26-6.26h82.06c3.66,0,6.62,2.96,6.62,6.62v20.67c.11,4.17.06,4.74-1.19,5.53l-40.71,23.51c-3.05,1.76-6.81,1.76-9.86,0l-28.09-16.22c-2.19-1.26-4.92.32-4.92,2.84l.04,25.54c0,2.7,1.45,5.18,3.79,6.52l32.3,18.51c.55.32,1.17.48,1.81.48s1.26-.17,1.81-.48l73.23-42.03c.85-.49,1.54-1.23,1.97-2.12h0c.11-.22.46-.87.47-3.41,0,0,0,0,0-.02V43.92c0-2.34-1.9-4.24-4.24-4.24H4.24c-2.34,0-4.24,1.9-4.24,4.24v119.4c0,2.76,1.49,5.3,3.89,6.65l70.56,39.8c1.27.72,2.71,1.1,4.18,1.1s2.96-.39,4.25-1.14l71.27-41.15c1.74-1.01,2.81-2.87,2.8-4.89l-.16-25.71c-.02-2.84-3.1-4.61-5.56-3.18Z"/>
  </g>
</svg>