<svg xmlns="http://www.w3.org/2000/svg" xmlns:xlink="http://www.w3.org/1999/xlink" width="24" height="24" viewBox="0 0 24 24">
  <defs>
    <clipPath id="clip-path">
      <rect id="Rectangle_5217" data-name="Rectangle 5217" width="24" height="24" transform="translate(116 826)" fill="#01bcec" stroke="#707070" stroke-width="1"/>
    </clipPath>
  </defs>
  <g id="home" transform="translate(-116 -826)" clip-path="url(#clip-path)">
    <path id="Path_357" data-name="Path 357" d="M-727.777,390.792h-4.161a2.631,2.631,0,0,1-2.123-2.4c-.043-1.99,0-7.226,0-7.226a3.03,3.03,0,0,1,.911-2.364c1.022-.813,6.42-5.8,6.42-5.8a2.318,2.318,0,0,1,3.455,0c1.857,1.774,6.38,5.615,6.38,5.615s1.067.4,1.087,2.548,0,6.884,0,6.884.027,2.776-2.238,2.744-3.792,0-3.792,0v-5.839s.185-1.642-1.224-1.639-3.668,0-3.668,0-1,.111-1.048,1.639S-727.777,390.792-727.777,390.792Z" transform="translate(852.938 456.498)" fill="#01bcec"/>
  </g>
</svg>
