<svg xmlns="http://www.w3.org/2000/svg" xmlns:xlink="http://www.w3.org/1999/xlink" width="455.58" height="507.371" viewBox="0 0 455.58 507.371">
  <defs>
    <clipPath id="clip-path">
      <path id="path116" d="M111.91-239.969c-18.682,0-33.831-2.123-33.831-4.739s15.148-4.745,33.831-4.745,33.831,2.123,33.831,4.745-15.148,4.739-33.831,4.739m-7.928-7.935c-8.432,0-15.262,1.429-15.262,3.2s6.831,3.192,15.262,3.192,15.258-1.431,15.258-3.192-6.834-3.2-15.258-3.2"/>
    </clipPath>
    <clipPath id="clip-path-2">
      <path id="path202" d="M429.81-239.969c-18.688,0-33.833-2.123-33.833-4.739s15.145-4.745,33.833-4.745,33.827,2.123,33.827,4.745-15.145,4.739-33.827,4.739m-7.932-7.935c-8.428,0-15.26,1.429-15.26,3.2s6.832,3.192,15.26,3.192,15.261-1.431,15.261-3.192-6.832-3.2-15.261-3.2"/>
    </clipPath>
    <clipPath id="clip-path-3">
      <path id="path288" d="M267.25-232.754c-24.781,0-44.868-2.815-44.868-6.288s20.087-6.287,44.868-6.287,44.861,2.816,44.861,6.287-20.088,6.288-44.861,6.288m-10.516-10.524c-11.183,0-20.24,1.9-20.24,4.236s9.057,4.236,20.24,4.236,20.236-1.895,20.236-4.236-9.061-4.236-20.236-4.236"/>
    </clipPath>
  </defs>
  <g id="vault" transform="translate(-54.403 535.879)">
    <g id="g12">
      <path id="path16" d="M190.877-107.4c0,11.977-30.549,21.688-68.237,21.688S54.4-95.419,54.4-107.4s30.549-21.688,68.237-21.688,68.237,9.709,68.237,21.688" fill="#1b283d"/>
      <path id="path18" d="M509.983-107.4c0,11.977-30.551,21.688-68.236,21.688s-68.239-9.711-68.239-21.688,30.551-21.688,68.239-21.688,68.236,9.709,68.236,21.688" fill="#1b283d"/>
      <path id="path20" d="M366.334-51.819c0,12.875-38.292,23.311-85.526,23.311s-85.526-10.436-85.526-23.311,38.292-23.309,85.526-23.309,85.526,10.436,85.526,23.309" fill="#1b283d"/>
      <path id="path22" d="M372.9-521.62v-10.893a3.176,3.176,0,0,0-2.94-3.365H320.027c-1.623,0-2.047,1.22-2.933,3.365l-4.255,10.675H160.861c-6.828,0-12.364,6.339-12.364,14.16v145.7c0,7.823,5.536,14.163,12.364,14.163H371.007c6.827,0,12.361-6.34,12.361-14.163v-145.7c0-7.076-4.547-12.892-10.465-13.941" fill="#5bb8e5"/>
      <path id="path24" d="M372.9-521.671v-10.843a3.176,3.176,0,0,0-2.94-3.365H342.633c-.743,4.695-2.293,8.905-3.869,14.04l34.14.168" fill="#4cb4e4"/>
      <path id="path26" d="M369.963-535.879h-13.5c.016.185.055.364.065.553a120.87,120.87,0,0,1-1.3,13.487l17.679.168v-10.843a3.176,3.176,0,0,0-2.94-3.365" fill="#3ba8da"/>
      <path id="path28" d="M371.007-521.839H338.763c-24.712,69.079-84.42,118.781-152.769,118.781a141.229,141.229,0,0,1-37.5-5.136v46.22c0,7.823,5.536,14.163,12.364,14.163H371.007c6.827,0,12.361-6.34,12.361-14.163v-145.7c0-7.821-5.535-14.16-12.361-14.16" fill="#4cb4e4"/>
      <path id="path30" d="M371.007-521.839H355.224c-17.261,82.977-83.37,146.218-160.473,146.218a141.952,141.952,0,0,1-46.255-7.832v21.479c0,7.823,5.536,14.163,12.364,14.163H371.007c6.827,0,12.361-6.34,12.361-14.163V-507.679c0-7.821-5.535-14.16-12.361-14.16" fill="#3ba8da"/>
      <path id="path32" d="M407.343-505.26l2.168-9.867a2.338,2.338,0,0,0-2.269-3.049H357.306c-1.619,0-2.288,1.1-3.605,3.049l-6.372,9.668H195.349c-6.828,0-13.621,5.744-15.175,12.829l-28.961,131.99c-1.551,7.083,2.723,12.828,9.549,12.828H370.911c6.825,0,13.621-5.745,15.173-12.828l28.961-131.99c1.407-6.412-1.988-11.679-7.7-12.631" fill="#72bfe6"/>
      <path id="path34" d="M406.9-505.311h.459l2.155-9.816a2.338,2.338,0,0,0-2.269-3.049H379.911c-1.672,4.252-4.064,8.067-6.66,12.717-38.441,62.577-108.025,107.6-176.376,107.6a142.944,142.944,0,0,1-36.475-4.649l-9.188,41.869c-1.551,7.083,2.723,12.828,9.549,12.828H370.911c6.825,0,13.621-5.745,15.173-12.828l28.961-131.99c1.441-6.579-2.175-11.935-8.148-12.681" fill="#68bce6"/>
      <path id="path36" d="M310.245-495.363H204.638c-6.827,0-13.617,5.745-15.173,12.829L177.66-428.722c36.2-37.444,84.212-62.876,132.585-66.641" fill="#97c9e8"/>
      <path id="path38" d="M406.872-505.312h.484l2.155-9.816a2.338,2.338,0,0,0-2.269-3.049h-13.5c-.017.167-.017.329-.044.5a112.917,112.917,0,0,1-3.981,12.217C355.96-430.292,277.289-373,200.178-373a140.6,140.6,0,0,1-44.7-7.092l-4.268,19.456c-1.551,7.083,2.723,12.828,9.549,12.828H370.911c6.825,0,13.621-5.745,15.173-12.828l28.961-131.99c1.441-6.585-2.18-11.947-8.173-12.683" fill="#5bb8e5"/>
      <path id="path40" d="M178.688-109.6c0,5.182-24.941,9.385-55.707,9.385s-55.7-4.2-55.7-9.385v-22.648H178.688V-109.6" fill="#8aa3b7"/>
      <path id="path42" d="M159.682-132.249v13.267c0,5.184-24.937,9.385-55.7,9.385a261.355,261.355,0,0,1-36.706-2.331v2.327c0,5.182,24.939,9.385,55.7,9.385s55.707-4.2,55.707-9.385v-22.648H159.682" fill="#7f9db2"/>
      <path id="path44" d="M169.661-132.249v18c0,5.183-24.939,9.391-55.705,9.391-19.5,0-36.653-1.691-46.6-4.248,1.53,4.951,25.847,8.891,55.625,8.891,30.766,0,55.707-4.2,55.707-9.385v-22.648h-9.027" fill="#7092a8"/>
      <path id="path46" d="M178.688-132.249c0,5.185-24.941,9.388-55.707,9.388s-55.7-4.2-55.7-9.388,24.939-9.389,55.7-9.389,55.707,4.2,55.707,9.389" fill="#a0afc1"/>
      <path id="path48" d="M98.317-130.131c-8.669-.533-15.438-1.563-18.481-2.832a126.789,126.789,0,0,0,18.481,2.832" fill="#a9b6c6"/>
      <path id="path50" d="M121.1-141.632c-.974,0-1.948.005-2.914.013,25.1.227,45,3.412,45,7.305,0,4.045-21.412,7.321-47.827,7.321-24.66,0-44.958-2.857-47.541-6.527a1.809,1.809,0,0,0-.284.933c0,5,23.98,9.045,53.568,9.045s53.568-4.049,53.568-9.045-23.984-9.047-53.568-9.047" fill="#86a1b5"/>
      <path id="path52" d="M174.918-137.838c0,4.835-23.255,8.755-51.938,8.755S71.047-133,71.047-137.838v-21.115H174.918v21.115" fill="#568dc0"/>
      <path id="path54" d="M157.2-158.953v12.369c0,4.835-23.251,8.749-51.938,8.749A243.547,243.547,0,0,1,71.047-140v2.167c0,4.835,23.25,8.755,51.934,8.755s51.938-3.92,51.938-8.755v-21.115H157.2" fill="#4689bf"/>
      <path id="path56" d="M166.5-158.953v16.785c0,4.832-23.253,8.749-51.942,8.749-18.176,0-34.164-1.573-43.447-3.957,1.43,4.616,24.1,8.292,51.866,8.292,28.683,0,51.938-3.92,51.938-8.755v-21.115H166.5" fill="#367aae"/>
      <path id="path58" d="M174.918-158.953c0,4.833-23.255,8.752-51.938,8.752s-51.934-3.919-51.934-8.752,23.25-8.753,51.934-8.753,51.938,3.921,51.938,8.753" fill="#a0afc1"/>
      <path id="path60" d="M121.23-167.7c-.915,0-1.817.005-2.718.015,23.4.207,41.956,3.176,41.956,6.811,0,3.768-19.967,6.824-44.593,6.824-22.994,0-41.919-2.664-44.323-6.085a1.64,1.64,0,0,0-.266.871c0,4.656,22.359,8.436,49.944,8.436s49.94-3.78,49.94-8.436-22.361-8.435-49.94-8.435" fill="#86a1b5"/>
      <path id="path62" d="M178.688-148.224c0,5.185-24.941,9.387-55.707,9.387s-55.7-4.2-55.7-9.387v-22.645H178.688v22.645" fill="#8aa3b7"/>
      <path id="path64" d="M159.682-170.869V-157.6c0,5.187-24.937,9.389-55.7,9.389a261.562,261.562,0,0,1-36.706-2.329v2.321c0,5.185,24.939,9.387,55.7,9.387s55.707-4.2,55.707-9.387v-22.645H159.682" fill="#7f9db2"/>
      <path id="path66" d="M169.661-170.869v18c0,5.184-24.939,9.385-55.705,9.385-19.5,0-36.653-1.689-46.6-4.247,1.53,4.955,25.847,8.891,55.625,8.891,30.766,0,55.707-4.2,55.707-9.387v-22.645h-9.027" fill="#7092a8"/>
      <path id="path68" d="M178.688-170.869c0,5.184-24.941,9.388-55.707,9.388s-55.7-4.2-55.7-9.388,24.939-9.387,55.7-9.387,55.707,4.2,55.707,9.387" fill="#a0afc1"/>
      <path id="path70" d="M98.414-168.745c-8.723-.533-15.533-1.567-18.584-2.841a127.008,127.008,0,0,0,18.584,2.841" fill="#a9b6c6"/>
      <path id="path72" d="M121.1-180.25c-.974,0-1.948.005-2.914.013,25.1.228,45,3.411,45,7.305,0,4.043-21.412,7.317-47.827,7.317-24.66,0-44.958-2.855-47.541-6.523a1.81,1.81,0,0,0-.284.935c0,4.993,23.98,9.047,53.568,9.047s53.568-4.053,53.568-9.047-23.984-9.048-53.568-9.048" fill="#86a1b5"/>
      <path id="path74" d="M174.918-176.458c0,4.833-23.255,8.752-51.938,8.752s-51.934-3.919-51.934-8.752v-21.115H174.918v21.115" fill="#568dc0"/>
      <path id="path76" d="M157.2-197.573V-185.2c0,4.832-23.251,8.752-51.938,8.752a243.748,243.748,0,0,1-34.216-2.171v2.164c0,4.835,23.25,8.752,51.934,8.752s51.938-3.917,51.938-8.752v-21.115H157.2" fill="#4689bf"/>
      <path id="path78" d="M166.5-197.573v16.784c0,4.833-23.253,8.755-51.942,8.755-18.176,0-34.164-1.577-43.447-3.963,1.43,4.621,24.1,8.291,51.866,8.291,28.683,0,51.938-3.917,51.938-8.752v-21.115H166.5" fill="#367aae"/>
      <path id="path80" d="M174.918-197.573c0,4.835-23.255,8.752-51.938,8.752s-51.934-3.917-51.934-8.752,23.25-8.752,51.934-8.752,51.938,3.92,51.938,8.752" fill="#a0afc1"/>
      <path id="path82" d="M121.23-206.32c-.915,0-1.817.005-2.718.013,23.4.208,41.956,3.18,41.956,6.809,0,3.772-19.967,6.831-44.593,6.831-22.994,0-41.919-2.667-44.323-6.092a1.663,1.663,0,0,0-.266.873c0,4.66,22.359,8.432,49.944,8.432s49.94-3.772,49.94-8.432-22.361-8.435-49.94-8.435" fill="#86a1b5"/>
      <path id="path84" d="M178.688-185.222c0,5.185-24.941,9.388-55.707,9.388s-55.7-4.2-55.7-9.388v-22.643H178.688v22.643" fill="#8aa3b7"/>
      <path id="path86" d="M159.682-207.865V-194.6c0,5.183-24.937,9.387-55.7,9.387a260.934,260.934,0,0,1-36.706-2.331v2.324c0,5.185,24.939,9.388,55.7,9.388s55.707-4.2,55.707-9.388v-22.643H159.682" fill="#7f9db2"/>
      <path id="path88" d="M169.661-207.865v18c0,5.189-24.939,9.388-55.705,9.388-19.5,0-36.653-1.688-46.6-4.248,1.53,4.956,25.847,8.893,55.625,8.893,30.766,0,55.707-4.2,55.707-9.388v-22.643h-9.027" fill="#7092a8"/>
      <path id="path90" d="M178.688-207.865c0,5.184-24.941,9.384-55.707,9.384s-55.7-4.2-55.7-9.384,24.939-9.391,55.7-9.391,55.707,4.205,55.707,9.391" fill="#a0afc1"/>
      <path id="path92" d="M121.1-217.25c-.974,0-1.948.005-2.914.015,25.1.223,45,3.407,45,7.305,0,4.044-21.412,7.321-47.827,7.321-24.66,0-44.958-2.859-47.541-6.528a1.821,1.821,0,0,0-.284.936c0,4.995,23.98,9.043,53.568,9.043s53.568-4.048,53.568-9.043-23.984-9.049-53.568-9.049" fill="#86a1b5"/>
      <path id="path94" d="M174.918-211.073c0,4.835-23.255,8.753-51.938,8.753s-51.934-3.919-51.934-8.753v-21.115H174.918v21.115" fill="#568dc0"/>
      <path id="path96" d="M157.2-232.187v12.367c0,4.835-23.251,8.755-51.938,8.755a243.5,243.5,0,0,1-34.216-2.173v2.167c0,4.835,23.25,8.753,51.934,8.753s51.938-3.919,51.938-8.753v-21.115H157.2" fill="#4689bf"/>
      <path id="path98" d="M166.5-232.187v16.781c0,4.832-23.253,8.753-51.942,8.753-18.176,0-34.164-1.573-43.447-3.96,1.43,4.619,24.1,8.293,51.866,8.293,28.683,0,51.938-3.919,51.938-8.753v-21.115H166.5" fill="#367aae"/>
      <path id="path100" d="M174.918-232.187c0,4.833-23.255,8.752-51.938,8.752s-51.934-3.919-51.934-8.752,23.25-8.753,51.934-8.753,51.938,3.919,51.938,8.753" fill="#a0afc1"/>
      <path id="path102" d="M121.23-240.935c-.915,0-1.817,0-2.718.015,23.4.208,41.956,3.177,41.956,6.809,0,3.767-19.967,6.825-44.593,6.825-22.994,0-41.919-2.667-44.323-6.087a1.643,1.643,0,0,0-.266.869c0,4.66,22.359,8.436,49.944,8.436s49.94-3.776,49.94-8.436-22.361-8.432-49.94-8.432" fill="#86a1b5"/>
      <path id="path104" d="M178.688-219.839c0,5.185-24.941,9.389-55.707,9.389s-55.7-4.2-55.7-9.389v-22.643H178.688v22.643" fill="#8aa3b7"/>
      <path id="path106" d="M159.682-242.482v13.263c0,5.185-24.937,9.387-55.7,9.387a262.011,262.011,0,0,1-36.706-2.327v2.32c0,5.185,24.939,9.389,55.7,9.389s55.707-4.2,55.707-9.389v-22.643H159.682" fill="#7f9db2"/>
      <path id="path108" d="M169.661-242.482v18c0,5.181-24.939,9.388-55.705,9.388-19.5,0-36.653-1.693-46.6-4.248,1.53,4.951,25.847,8.892,55.625,8.892,30.766,0,55.707-4.2,55.707-9.389v-22.643h-9.027" fill="#7092a8"/>
      <path id="path110" d="M178.688-242.482c0,5.183-24.941,9.384-55.707,9.384s-55.7-4.2-55.7-9.384,24.939-9.387,55.7-9.387,55.707,4.2,55.707,9.387" fill="#a0afc1"/>
      <g id="g112">
        <g id="g114" clip-path="url(#clip-path)">
          <path id="path120" d="M78.08-239.969h67.661v-9.484H78.08Z" fill="#a9b6c6"/>
        </g>
      </g>
      <path id="path122" d="M103.983-241.515c-8.432,0-15.262-1.431-15.262-3.192s6.831-3.2,15.262-3.2,15.258,1.429,15.258,3.2-6.834,3.192-15.258,3.192" fill="#b9c3d0"/>
      <path id="path124" d="M121.1-251.865c-.974,0-1.948,0-2.914.012,25.1.224,45,3.409,45,7.3,0,4.044-21.412,7.321-47.827,7.321-24.66,0-44.958-2.857-47.541-6.525a1.819,1.819,0,0,0-.284.932c0,5,23.98,9.049,53.568,9.049s53.568-4.053,53.568-9.049-23.984-9.044-53.568-9.044" fill="#86a1b5"/>
      <path id="path126" d="M496.585-109.6c0,5.182-24.941,9.385-55.707,9.385s-55.7-4.2-55.7-9.385v-22.648H496.585V-109.6" fill="#8aa3b7"/>
      <path id="path128" d="M477.582-132.249v13.267c0,5.184-24.939,9.385-55.7,9.385a261.288,261.288,0,0,1-36.7-2.331v2.327c0,5.182,24.939,9.385,55.7,9.385s55.707-4.2,55.707-9.385v-22.648h-19" fill="#7f9db2"/>
      <path id="path130" d="M487.559-132.249v18c0,5.183-24.94,9.391-55.7,9.391-19.5,0-36.652-1.691-46.6-4.248,1.529,4.951,25.848,8.891,55.625,8.891,30.765,0,55.707-4.2,55.707-9.385v-22.648h-9.027" fill="#7092a8"/>
      <path id="path132" d="M496.585-132.249c0,5.185-24.941,9.388-55.707,9.388s-55.7-4.2-55.7-9.388,24.939-9.389,55.7-9.389,55.707,4.2,55.707,9.389" fill="#a0afc1"/>
      <path id="path134" d="M416.219-130.131c-8.673-.533-15.444-1.563-18.487-2.832a126.827,126.827,0,0,0,18.487,2.832" fill="#a9b6c6"/>
      <path id="path136" d="M439-141.632c-.983,0-1.952.005-2.919.013,25.1.227,45,3.412,45,7.305,0,4.045-21.411,7.321-47.827,7.321-24.661,0-44.957-2.857-47.54-6.527a1.767,1.767,0,0,0-.284.933c0,5,23.983,9.045,53.569,9.045s53.563-4.049,53.563-9.045-23.983-9.047-53.563-9.047" fill="#86a1b5"/>
      <path id="path138" d="M492.816-137.838c0,4.835-23.252,8.755-51.937,8.755s-51.935-3.92-51.935-8.755v-21.115H492.816v21.115" fill="#568dc0"/>
      <path id="path140" d="M475.1-158.953v12.369c0,4.835-23.248,8.749-51.935,8.749A243.533,243.533,0,0,1,388.944-140v2.167c0,4.835,23.251,8.755,51.935,8.755s51.937-3.92,51.937-8.755v-21.115H475.1" fill="#4689bf"/>
      <path id="path142" d="M484.4-158.953v16.785c0,4.832-23.255,8.749-51.939,8.749-18.181,0-34.169-1.573-43.449-3.957,1.429,4.616,24.1,8.292,51.864,8.292,28.685,0,51.937-3.92,51.937-8.755v-21.115H484.4" fill="#367aae"/>
      <path id="path144" d="M492.816-158.953c0,4.833-23.252,8.752-51.937,8.752s-51.935-3.919-51.935-8.752,23.251-8.753,51.935-8.753,51.937,3.921,51.937,8.753" fill="#a0afc1"/>
      <path id="path146" d="M439.131-167.7c-.916,0-1.82.005-2.72.015,23.4.207,41.953,3.176,41.953,6.811,0,3.768-19.959,6.824-44.588,6.824-23,0-41.92-2.664-44.327-6.085a1.656,1.656,0,0,0-.268.871c0,4.656,22.363,8.436,49.949,8.436s49.939-3.78,49.939-8.436-22.36-8.435-49.939-8.435" fill="#86a1b5"/>
      <path id="path148" d="M496.585-148.224c0,5.185-24.941,9.387-55.707,9.387s-55.7-4.2-55.7-9.387v-22.645H496.585v22.645" fill="#8aa3b7"/>
      <path id="path150" d="M477.582-170.869V-157.6c0,5.187-24.939,9.389-55.7,9.389a261.5,261.5,0,0,1-36.7-2.329v2.321c0,5.185,24.939,9.387,55.7,9.387s55.707-4.2,55.707-9.387v-22.645h-19" fill="#7f9db2"/>
      <path id="path152" d="M487.559-170.869v18c0,5.184-24.94,9.385-55.7,9.385-19.5,0-36.652-1.689-46.6-4.247,1.529,4.955,25.848,8.891,55.625,8.891,30.765,0,55.707-4.2,55.707-9.387v-22.645h-9.027" fill="#7092a8"/>
      <path id="path154" d="M496.585-170.869c0,5.184-24.941,9.388-55.707,9.388s-55.7-4.2-55.7-9.388,24.939-9.387,55.7-9.387,55.707,4.2,55.707,9.387" fill="#a0afc1"/>
      <path id="path156" d="M416.315-168.745c-8.728-.532-15.539-1.567-18.589-2.841a127.088,127.088,0,0,0,18.589,2.841" fill="#a9b6c6"/>
      <path id="path158" d="M439-180.25c-.983,0-1.952.005-2.919.013,25.1.228,45,3.411,45,7.305,0,4.043-21.411,7.317-47.827,7.317-24.661,0-44.957-2.855-47.54-6.523a1.767,1.767,0,0,0-.284.935c0,4.993,23.983,9.047,53.569,9.047s53.563-4.053,53.563-9.047S468.583-180.25,439-180.25" fill="#86a1b5"/>
      <path id="path160" d="M492.816-176.458c0,4.833-23.252,8.752-51.937,8.752s-51.935-3.919-51.935-8.752v-21.115H492.816v21.115" fill="#568dc0"/>
      <path id="path162" d="M475.1-197.573V-185.2c0,4.832-23.248,8.752-51.935,8.752a243.734,243.734,0,0,1-34.217-2.171v2.164c0,4.835,23.251,8.752,51.935,8.752s51.937-3.917,51.937-8.752v-21.115H475.1" fill="#4689bf"/>
      <path id="path164" d="M484.4-197.573v16.784c0,4.833-23.255,8.755-51.939,8.755-18.181,0-34.169-1.577-43.449-3.963,1.429,4.621,24.1,8.291,51.864,8.291,28.685,0,51.937-3.917,51.937-8.752v-21.115H484.4" fill="#367aae"/>
      <path id="path166" d="M492.816-197.573c0,4.835-23.252,8.752-51.937,8.752s-51.935-3.917-51.935-8.752,23.251-8.752,51.935-8.752,51.937,3.92,51.937,8.752" fill="#a0afc1"/>
      <path id="path168" d="M439.131-206.32c-.916,0-1.82.005-2.72.013,23.4.208,41.953,3.18,41.953,6.809,0,3.772-19.959,6.831-44.588,6.831-23,0-41.92-2.667-44.327-6.092a1.68,1.68,0,0,0-.268.873c0,4.66,22.363,8.432,49.949,8.432s49.939-3.772,49.939-8.432-22.36-8.435-49.939-8.435" fill="#86a1b5"/>
      <path id="path170" d="M496.585-185.222c0,5.185-24.941,9.388-55.707,9.388s-55.7-4.2-55.7-9.388v-22.643H496.585v22.643" fill="#8aa3b7"/>
      <path id="path172" d="M477.582-207.865V-194.6c0,5.183-24.939,9.387-55.7,9.387a260.868,260.868,0,0,1-36.7-2.331v2.324c0,5.185,24.939,9.388,55.7,9.388s55.707-4.2,55.707-9.388v-22.643h-19" fill="#7f9db2"/>
      <path id="path174" d="M487.559-207.865v18c0,5.189-24.94,9.388-55.7,9.388-19.5,0-36.652-1.688-46.6-4.248,1.529,4.956,25.848,8.893,55.625,8.893,30.765,0,55.707-4.2,55.707-9.388v-22.643h-9.027" fill="#7092a8"/>
      <path id="path176" d="M496.585-207.865c0,5.184-24.941,9.384-55.707,9.384s-55.7-4.2-55.7-9.384,24.939-9.391,55.7-9.391,55.707,4.205,55.707,9.391" fill="#a0afc1"/>
      <path id="path178" d="M439-217.25c-.983,0-1.952.005-2.919.015,25.1.223,45,3.407,45,7.305,0,4.044-21.411,7.321-47.827,7.321-24.661,0-44.957-2.859-47.54-6.528a1.779,1.779,0,0,0-.284.936c0,4.995,23.983,9.043,53.569,9.043s53.563-4.048,53.563-9.043S468.583-217.25,439-217.25" fill="#86a1b5"/>
      <path id="path180" d="M492.816-211.073c0,4.835-23.252,8.753-51.937,8.753s-51.935-3.919-51.935-8.753v-21.115H492.816v21.115" fill="#568dc0"/>
      <path id="path182" d="M475.1-232.187v12.367c0,4.835-23.248,8.755-51.935,8.755a243.489,243.489,0,0,1-34.217-2.173v2.167c0,4.835,23.251,8.753,51.935,8.753s51.937-3.919,51.937-8.753v-21.115H475.1" fill="#4689bf"/>
      <path id="path184" d="M484.4-232.187v16.781c0,4.832-23.255,8.753-51.939,8.753-18.181,0-34.169-1.573-43.449-3.96,1.429,4.619,24.1,8.293,51.864,8.293,28.685,0,51.937-3.919,51.937-8.753v-21.115H484.4" fill="#367aae"/>
      <path id="path186" d="M492.816-232.187c0,4.833-23.252,8.752-51.937,8.752s-51.935-3.919-51.935-8.752,23.251-8.753,51.935-8.753,51.937,3.919,51.937,8.753" fill="#a0afc1"/>
      <path id="path188" d="M439.131-240.935c-.916,0-1.82,0-2.72.015,23.4.208,41.953,3.177,41.953,6.809,0,3.767-19.959,6.825-44.588,6.825-23,0-41.92-2.667-44.327-6.087a1.659,1.659,0,0,0-.268.869c0,4.66,22.363,8.436,49.949,8.436s49.939-3.776,49.939-8.436-22.36-8.432-49.939-8.432" fill="#86a1b5"/>
      <path id="path190" d="M496.585-219.839c0,5.185-24.941,9.389-55.707,9.389s-55.7-4.2-55.7-9.389v-22.643H496.585v22.643" fill="#8aa3b7"/>
      <path id="path192" d="M477.582-242.482v13.263c0,5.185-24.939,9.387-55.7,9.387a261.945,261.945,0,0,1-36.7-2.327v2.32c0,5.185,24.939,9.389,55.7,9.389s55.707-4.2,55.707-9.389v-22.643h-19" fill="#7f9db2"/>
      <path id="path194" d="M487.559-242.482v18c0,5.181-24.94,9.388-55.7,9.388-19.5,0-36.652-1.693-46.6-4.248,1.529,4.951,25.848,8.892,55.625,8.892,30.765,0,55.707-4.2,55.707-9.389v-22.643h-9.027" fill="#7092a8"/>
      <path id="path196" d="M496.585-242.482c0,5.183-24.941,9.384-55.707,9.384s-55.7-4.2-55.7-9.384,24.939-9.387,55.7-9.387,55.707,4.2,55.707,9.387" fill="#a0afc1"/>
      <g id="g198">
        <g id="g200" clip-path="url(#clip-path-2)">
          <path id="path206" d="M395.976-239.969h67.66v-9.484h-67.66Z" fill="#a9b6c6"/>
        </g>
      </g>
      <path id="path208" d="M421.878-241.515c-8.428,0-15.26-1.431-15.26-3.192s6.832-3.2,15.26-3.2,15.261,1.429,15.261,3.2-6.832,3.192-15.261,3.192" fill="#b9c3d0"/>
      <path id="path210" d="M439-251.865c-.983,0-1.952,0-2.919.012,25.1.224,45,3.409,45,7.3,0,4.044-21.411,7.321-47.827,7.321-24.661,0-44.957-2.857-47.54-6.525a1.776,1.776,0,0,0-.284.932c0,5,23.983,9.049,53.569,9.049s53.563-4.053,53.563-9.049-23.983-9.044-53.563-9.044" fill="#86a1b5"/>
      <path id="path212" d="M355.8-59.873c0,6.876-33.075,12.449-73.874,12.449S208.061-53,208.061-59.873V-89.9H355.8v30.032" fill="#8aa3b7"/>
      <path id="path214" d="M330.6-89.9V-72.31c0,6.875-33.072,12.445-73.865,12.445a346.787,346.787,0,0,1-48.673-3.087v3.079c0,6.876,33.073,12.449,73.868,12.449S355.8-53,355.8-59.873V-89.9H330.6" fill="#7f9db2"/>
      <path id="path216" d="M343.832-89.9v23.873c0,6.872-33.073,12.448-73.869,12.448-25.863,0-48.607-2.24-61.8-5.63,2.031,6.567,34.279,11.79,73.768,11.79,40.8,0,73.874-5.573,73.874-12.449V-89.9H343.832" fill="#7092a8"/>
      <path id="path218" d="M355.8-89.9c0,6.877-33.075,12.452-73.874,12.452S208.061-83.028,208.061-89.9s33.073-12.448,73.868-12.448S355.8-96.78,355.8-89.9" fill="#a0afc1"/>
      <path id="path220" d="M249.382-87.084C237.8-87.79,228.75-89.162,224.7-90.854a168.76,168.76,0,0,0,24.681,3.771" fill="#a9b6c6"/>
      <path id="path222" d="M279.437-102.343q-1.94,0-3.864.016c33.281.3,59.676,4.523,59.676,9.69,0,5.358-28.395,9.707-63.426,9.707-32.7,0-59.623-3.791-63.048-8.657a2.413,2.413,0,0,0-.371,1.24c0,6.627,31.8,12,71.033,12s71.036-5.369,71.036-12-31.8-11.994-71.036-11.994" fill="#86a1b5"/>
      <path id="path224" d="M350.8-97.312c0,6.407-30.836,11.6-68.876,11.6s-68.875-5.2-68.875-11.6v-28H350.8v28" fill="#568dc0"/>
      <path id="path226" d="M327.307-125.314v16.4c0,6.409-30.836,11.6-68.872,11.6a323.449,323.449,0,0,1-45.381-2.876v2.874c0,6.407,30.839,11.6,68.875,11.6s68.876-5.2,68.876-11.6v-28h-23.5" fill="#4689bf"/>
      <path id="path228" d="M339.645-125.314v22.257c0,6.408-30.836,11.6-68.876,11.6-24.111,0-45.312-2.085-57.621-5.25,1.9,6.124,31.965,10.995,68.781,10.995,38.04,0,68.876-5.2,68.876-11.6v-28h-11.16" fill="#367aae"/>
      <path id="path230" d="M350.8-125.314c0,6.41-30.836,11.607-68.876,11.607s-68.875-5.2-68.875-11.607,30.839-11.611,68.875-11.611,68.876,5.2,68.876,11.611" fill="#a0afc1"/>
      <path id="path232" d="M279.609-136.912c-1.212,0-2.412,0-3.6.016,31.029.275,55.637,4.212,55.637,9.031,0,5-26.473,9.049-59.132,9.049-30.5,0-55.595-3.531-58.784-8.069a2.2,2.2,0,0,0-.352,1.154c0,6.177,29.652,11.186,66.235,11.186s66.227-5.009,66.227-11.186-29.651-11.18-66.227-11.18" fill="#86a1b5"/>
      <path id="path234" d="M355.8-111.089c0,6.88-33.075,12.452-73.874,12.452s-73.868-5.572-73.868-12.452v-30.028H355.8v30.028" fill="#8aa3b7"/>
      <path id="path236" d="M330.6-141.117v17.592c0,6.872-33.072,12.447-73.865,12.447a347.015,347.015,0,0,1-48.673-3.088v3.078c0,6.88,33.073,12.452,73.868,12.452s73.874-5.572,73.874-12.452v-30.028H330.6" fill="#7f9db2"/>
      <path id="path238" d="M343.832-141.117v23.87c0,6.872-33.073,12.45-73.869,12.45-25.863,0-48.607-2.243-61.8-5.633,2.031,6.571,34.279,11.793,73.768,11.793,40.8,0,73.874-5.572,73.874-12.452v-30.028H343.832" fill="#7092a8"/>
      <path id="path240" d="M355.8-141.117c0,6.872-33.075,12.447-73.874,12.447s-73.868-5.575-73.868-12.447,33.073-12.449,73.868-12.449,73.874,5.572,73.874,12.449" fill="#a0afc1"/>
      <path id="path242" d="M249.378-138.3c-11.591-.707-20.639-2.079-24.684-3.772a168.532,168.532,0,0,0,24.684,3.772" fill="#a9b6c6"/>
      <path id="path244" d="M279.437-153.56c-1.293,0-2.581.009-3.864.017,33.281.3,59.676,4.523,59.676,9.691,0,5.357-28.395,9.705-63.426,9.705-32.7,0-59.623-3.788-63.048-8.656a2.4,2.4,0,0,0-.371,1.243c0,6.62,31.8,11.993,71.033,11.993s71.036-5.373,71.036-11.993-31.8-12-71.036-12" fill="#86a1b5"/>
      <path id="path246" d="M350.8-148.528c0,6.407-30.836,11.6-68.876,11.6s-68.875-5.2-68.875-11.6v-28H350.8v28" fill="#568dc0"/>
      <path id="path248" d="M327.307-176.53v16.4c0,6.409-30.836,11.607-68.872,11.607a323.571,323.571,0,0,1-45.381-2.879v2.872c0,6.407,30.839,11.6,68.875,11.6s68.876-5.2,68.876-11.6v-28h-23.5" fill="#4689bf"/>
      <path id="path250" d="M339.645-176.53v22.257c0,6.411-30.836,11.608-68.876,11.608-24.111,0-45.312-2.092-57.621-5.252,1.9,6.125,31.965,10.992,68.781,10.992,38.04,0,68.876-5.2,68.876-11.6v-28h-11.16" fill="#367aae"/>
      <path id="path252" d="M350.8-176.53c0,6.412-30.836,11.607-68.876,11.607s-68.875-5.195-68.875-11.607,30.839-11.608,68.875-11.608,68.876,5.2,68.876,11.608" fill="#a0afc1"/>
      <path id="path254" d="M279.609-188.13q-1.818,0-3.6.02c31.029.273,55.637,4.211,55.637,9.032,0,5-26.473,9.048-59.132,9.048-30.5,0-55.595-3.532-58.784-8.069a2.2,2.2,0,0,0-.352,1.155c0,6.176,29.652,11.187,66.235,11.187s66.227-5.011,66.227-11.187-29.651-11.185-66.227-11.185" fill="#86a1b5"/>
      <path id="path256" d="M355.8-160.15c0,6.875-33.075,12.448-73.874,12.448s-73.868-5.573-73.868-12.448v-30.036H355.8v30.036" fill="#8aa3b7"/>
      <path id="path258" d="M330.6-190.186v17.593c0,6.875-33.072,12.449-73.865,12.449a346.61,346.61,0,0,1-48.673-3.087v3.08c0,6.875,33.073,12.448,73.868,12.448S355.8-153.276,355.8-160.15v-30.036H330.6" fill="#7f9db2"/>
      <path id="path260" d="M343.832-190.186v23.875c0,6.876-33.073,12.449-73.869,12.449-25.863,0-48.607-2.241-61.8-5.633,2.031,6.572,34.279,11.793,73.768,11.793,40.8,0,73.874-5.573,73.874-12.448v-30.036H343.832" fill="#7092a8"/>
      <path id="path262" d="M355.8-190.186c0,6.877-33.075,12.449-73.874,12.449s-73.868-5.572-73.868-12.449,33.073-12.445,73.868-12.445,73.874,5.569,73.874,12.445" fill="#a0afc1"/>
      <path id="path264" d="M279.437-202.625q-1.94,0-3.864.02c33.281.3,59.676,4.52,59.676,9.685,0,5.364-28.395,9.705-63.426,9.705-32.7,0-59.623-3.784-63.048-8.652a2.394,2.394,0,0,0-.371,1.237c0,6.624,31.8,11.995,71.033,11.995s71.036-5.371,71.036-11.995-31.8-12-71.036-12" fill="#86a1b5"/>
      <path id="path266" d="M350.8-194.434c0,6.408-30.836,11.608-68.876,11.608s-68.875-5.2-68.875-11.608v-28H350.8v28" fill="#568dc0"/>
      <path id="path268" d="M327.307-222.438v16.405c0,6.411-30.836,11.6-68.872,11.6a322.742,322.742,0,0,1-45.381-2.88v2.875c0,6.408,30.839,11.608,68.875,11.608s68.876-5.2,68.876-11.608v-28h-23.5" fill="#4689bf"/>
      <path id="path270" d="M339.645-222.438v22.261c0,6.408-30.836,11.6-68.876,11.6-24.111,0-45.312-2.089-57.621-5.252,1.9,6.127,31.965,11,68.781,11,38.04,0,68.876-5.2,68.876-11.608v-28h-11.16" fill="#367aae"/>
      <path id="path272" d="M350.8-222.438c0,6.411-30.836,11.609-68.876,11.609s-68.875-5.2-68.875-11.609,30.839-11.6,68.875-11.6,68.876,5.2,68.876,11.6" fill="#a0afc1"/>
      <path id="path274" d="M279.609-234.037q-1.818,0-3.6.019c31.029.276,55.637,4.215,55.637,9.031,0,5-26.473,9.052-59.132,9.052-30.5,0-55.595-3.535-58.784-8.069a2.2,2.2,0,0,0-.352,1.156c0,6.176,29.652,11.181,66.235,11.181s66.227-5.005,66.227-11.181-29.651-11.188-66.227-11.188" fill="#86a1b5"/>
      <path id="path276" d="M355.8-206.059c0,6.875-33.075,12.452-73.874,12.452s-73.868-5.577-73.868-12.452v-30.028H355.8v30.028" fill="#8aa3b7"/>
      <path id="path278" d="M330.6-236.087V-218.5c0,6.873-33.072,12.447-73.865,12.447a346.407,346.407,0,0,1-48.673-3.087v3.077c0,6.875,33.073,12.452,73.868,12.452S355.8-199.185,355.8-206.06v-30.028H330.6" fill="#7f9db2"/>
      <path id="path280" d="M343.832-236.087v23.872c0,6.871-33.073,12.445-73.869,12.445-25.863,0-48.607-2.241-61.8-5.631,2.031,6.569,34.279,11.793,73.768,11.793,40.8,0,73.874-5.577,73.874-12.452v-30.028H343.832" fill="#7092a8"/>
      <path id="path282" d="M355.8-236.087c0,6.873-33.075,12.448-73.874,12.448s-73.868-5.575-73.868-12.448,33.073-12.449,73.868-12.449,73.874,5.573,73.874,12.449" fill="#a0afc1"/>
      <g id="g284">
        <g id="g286" clip-path="url(#clip-path-3)">
          <path id="path292" d="M222.382-232.754h89.729v-12.574H222.382Z" fill="#a9b6c6"/>
        </g>
      </g>
      <path id="path294" d="M256.734-234.806c-11.183,0-20.24-1.895-20.24-4.236s9.057-4.236,20.24-4.236,20.236,1.9,20.236,4.236-9.061,4.236-20.236,4.236" fill="#b9c3d0"/>
      <path id="path296" d="M279.437-248.53q-1.94,0-3.864.016c33.281.3,59.676,4.523,59.676,9.688,0,5.361-28.395,9.709-63.426,9.709-32.7,0-59.623-3.793-63.048-8.656a2.394,2.394,0,0,0-.371,1.237c0,6.624,31.8,11.995,71.033,11.995s71.036-5.371,71.036-11.995-31.8-11.995-71.036-11.995" fill="#86a1b5"/>
      <path id="path298" d="M122.093-264.586h-2.245v-29.656h1.121l148.059-.123v-53.447h2.245v55.691h-1.121L122.093-292v27.411" fill="#fff"/>
      <path id="path300" d="M440.082-264.586h-2.245V-292l-145.252-.124v-55.69h2.245v53.447l145.252.123v29.656" fill="#fff"/>
      <path id="path302" d="M283.051-264.586h-2.244v-83.225h2.244v83.225" fill="#fff"/>
      <path id="path304" d="M123.682-263.342a2.745,2.745,0,0,0-2.748-2.74,2.744,2.744,0,0,0-2.749,2.74,2.742,2.742,0,0,0,2.749,2.741,2.743,2.743,0,0,0,2.748-2.741" fill="#fff"/>
      <path id="path306" d="M284.679-263.342a2.743,2.743,0,0,0-2.747-2.74,2.744,2.744,0,0,0-2.749,2.74,2.742,2.742,0,0,0,2.749,2.741,2.742,2.742,0,0,0,2.747-2.741" fill="#fff"/>
      <path id="path308" d="M441.747-263.342a2.746,2.746,0,0,0-2.751-2.74,2.742,2.742,0,0,0-2.747,2.74A2.741,2.741,0,0,0,439-260.6a2.744,2.744,0,0,0,2.751-2.741" fill="#fff"/>
    </g>
  </g>
</svg>
