<svg xmlns="http://www.w3.org/2000/svg" xmlns:xlink="http://www.w3.org/1999/xlink" width="580.337" height="381.432" viewBox="0 0 580.337 381.432">
  <defs>
    <clipPath id="clip-path">
      <path id="path98" d="M344.113-246.481l-24.228-13.928.729-.421,23.5,13.568L364.97-259.31l-.028.143-.151.788-20.679,11.9"/>
    </clipPath>
  </defs>
  <g id="origin_share" transform="translate(0 483.024)">
    <g id="g10">
      <path id="path14" d="M291.971-101.592c-5.927,0-11.939-.252-17.867-.749-46.784-3.923-88.568-22.813-109.048-49.3l-.816-1.055,18.936-14.64.815,1.055c18.849,24.372,62.289,40.747,108.1,40.747h.008c4.285,0,8.592-.149,12.8-.444,28.491-1.993,53.131-10.561,67.9-23.566l-13.356-14.477,47.268-2.7-4.163,49.42-13.515-14.647c-18.88,16.859-48.092,27.444-82.46,29.848-4.811.336-9.721.506-14.593.506" fill="#dadbd8"/>
      <path id="path16" d="M236.225-225.739v-19.12l24.839-14.34v19.12l-24.839,14.34" fill="#ededeb"/>
      <path id="path18" d="M236.225-244.859l-31.048-17.925v19.12l31.048,17.925v-19.12" fill="#e2e2e0"/>
      <path id="path20" d="M236.225-244.859,261.8-259.631l-31.783-18.355-25.575,14.772,31.784,18.355" fill="#fafaf9"/>
      <path id="path22" d="M236.225-244.859v4.78L261.8-254.845v-4.787l-25.573,14.772" fill="#ededeb"/>
      <path id="path24" d="M236.225-240.079l24.839-14.34v1.051l-24.839,14.341v-1.052" fill="#e2e2e0"/>
      <path id="path26" d="M204.441-263.214l31.784,18.355v4.78L204.441-258.43v-4.784" fill="#e2e2e0"/>
      <path id="path28" d="M236.225-240.079,205.177-258v1.051l31.048,17.927v-1.052" fill="#dadbd8"/>
      <path id="path30" d="M244.4-241.954l8.484-4.9c.365-.211.661-.039.661.383v5.017a1.466,1.466,0,0,1-.661,1.147l-8.484,4.9c-.365.212-.663.04-.663-.381v-5.016a1.468,1.468,0,0,1,.663-1.148" fill="#e7e8e5"/>
      <path id="path32" d="M244.945-241.385l7.4-4.271c.244-.141.441-.027.441.255v3.761a.975.975,0,0,1-.441.764l-7.4,4.271c-.243.14-.441.027-.441-.255v-3.761a.977.977,0,0,1,.441-.764" fill="#fafaf9"/>
      <path id="path34" d="M236.225-247.262v-19.121l24.839-14.34v19.12l-24.839,14.341" fill="#ededeb"/>
      <path id="path36" d="M236.225-266.383l-31.048-17.925v19.12l31.048,17.927v-19.121" fill="#e2e2e0"/>
      <path id="path38" d="M236.225-266.383,261.8-281.155,230.015-299.51l-25.575,14.772,31.784,18.355" fill="#f3f2f1"/>
      <path id="path40" d="M236.225-266.383v4.78L261.8-276.369v-4.787l-25.573,14.772" fill="#ededeb"/>
      <path id="path42" d="M236.225-261.6l24.839-14.34v1.051l-24.839,14.34V-261.6" fill="#e2e2e0"/>
      <path id="path44" d="M204.441-284.738l31.784,18.355v4.78l-31.784-18.351v-4.784" fill="#e2e2e0"/>
      <path id="path46" d="M236.225-261.6l-31.048-17.925v1.051l31.048,17.925V-261.6" fill="#dadbd8"/>
      <path id="path48" d="M244.4-263.477l8.484-4.9c.365-.212.661-.04.661.381v5.017a1.46,1.46,0,0,1-.661,1.145l-8.484,4.9c-.365.212-.663.041-.663-.381v-5.017a1.463,1.463,0,0,1,.663-1.145" fill="#e7e8e5"/>
      <path id="path50" d="M244.945-262.909l7.4-4.271c.244-.141.441-.027.441.255v3.761a.973.973,0,0,1-.441.764l-7.4,4.271c-.243.141-.441.027-.441-.255v-3.76a.979.979,0,0,1,.441-.765" fill="#fafaf9"/>
      <path id="path52" d="M259.723-260.83l-23.5,13.568-29.707-17.161-.728.429,30.435,17.513,24.229-13.928-.731-.421" fill="#dadbd8"/>
      <path id="path54" d="M236.225-246.481,223.4-253.863v-.811l12.829,7.412,23.5-13.568.731.421-24.229,13.928" fill="#dadbd8"/>
      <path id="path56" d="M344.113-225.739v-19.12L319.275-259.2v19.12l24.837,14.34" fill="#ededeb"/>
      <path id="path58" d="M344.113-244.859l31.048-17.925v19.12l-31.048,17.925v-19.12" fill="#e2e2e0"/>
      <path id="path60" d="M344.113-244.859l-25.573-14.772,31.784-18.355L375.9-263.214l-31.785,18.355" fill="#fafaf9"/>
      <path id="path62" d="M344.113-244.859v4.78l-25.573-14.765v-4.787l25.573,14.772" fill="#ededeb"/>
      <path id="path64" d="M344.113-240.079l-24.837-14.34v1.051l24.837,14.341v-1.052" fill="#e2e2e0"/>
      <path id="path66" d="M375.9-263.214l-31.785,18.355v4.78L375.9-258.43v-4.784" fill="#e2e2e0"/>
      <path id="path68" d="M344.113-240.079,375.16-258v1.051l-31.047,17.927v-1.052" fill="#dadbd8"/>
      <path id="path70" d="M335.936-241.954l-8.485-4.9c-.364-.211-.661-.039-.661.383v5.017a1.47,1.47,0,0,0,.661,1.147l8.485,4.9c.365.212.663.04.663-.381v-5.016a1.468,1.468,0,0,0-.663-1.148" fill="#e7e8e5"/>
      <path id="path72" d="M335.392-241.385l-7.4-4.271c-.243-.141-.441-.027-.441.255v3.761a.979.979,0,0,0,.441.764l7.4,4.271c.244.14.441.027.441-.255v-3.761a.973.973,0,0,0-.441-.764" fill="#fafaf9"/>
      <path id="path74" d="M344.113-247.262v-19.121l-24.837-14.34v19.12l24.837,14.341" fill="#ededeb"/>
      <path id="path76" d="M344.113-266.383l31.048-17.925v19.12l-31.048,17.927v-19.121" fill="#e2e2e0"/>
      <path id="path78" d="M344.113-266.383l-25.573-14.772,31.784-18.355L375.9-284.738l-31.785,18.355" fill="#f3f2f1"/>
      <path id="path80" d="M344.113-266.383v4.78l-25.573-14.765v-4.787l25.573,14.772" fill="#ededeb"/>
      <path id="path82" d="M344.113-261.6l-24.837-14.34v1.051l24.837,14.34V-261.6" fill="#e2e2e0"/>
      <path id="path84" d="M375.9-284.738l-31.785,18.355v4.78L375.9-279.954v-4.784" fill="#e2e2e0"/>
      <path id="path86" d="M344.113-261.6l31.048-17.925v1.051l-31.047,17.925V-261.6" fill="#dadbd8"/>
      <path id="path88" d="M335.936-263.477l-8.485-4.9c-.364-.212-.661-.04-.661.381v5.017a1.463,1.463,0,0,0,.661,1.145l8.485,4.9c.365.212.663.041.663-.381v-5.017a1.463,1.463,0,0,0-.663-1.145" fill="#e7e8e5"/>
      <path id="path90" d="M335.392-262.909l-7.4-4.271c-.243-.141-.441-.027-.441.255v3.761a.977.977,0,0,0,.441.764l7.4,4.271c.244.141.441.027.441-.255v-3.76a.975.975,0,0,0-.441-.765" fill="#fafaf9"/>
      <path id="path92" d="M320.614-260.83l23.5,13.568,29.709-17.161.727.429-30.436,17.513-24.228-13.928.729-.421" fill="#dadbd8"/>
      <g id="g94">
        <g id="g96" clip-path="url(#clip-path)">
          <path id="path102" d="M319.885-246.481H364.97V-260.83H319.885Z" fill="#dadbd8"/>
        </g>
      </g>
      <path id="path104" d="M42.41-148.3,72.1-165.437V-229.1L42.41-211.959V-148.3" fill="#17282f"/>
      <path id="path106" d="M42.41-211.959,0-236.445v63.663L42.41-148.3v-63.661" fill="#273e47"/>
      <path id="path108" d="M0-236.445,42.41-211.959,72.1-229.1l-42.41-24.485L0-236.445" fill="#33535f"/>
      <path id="path110" d="M38.949-179.673,5.022-199.262v23.58l-.78.452L38.17-155.642l.781-.452,0-23.579" fill="#17282f"/>
      <path id="path112" d="M38.17-179.222,4.241-198.81l0,23.58L38.17-155.642v-23.58" fill="#33535f"/>
      <path id="path114" d="M24.871-182.9,19.1-186.236c-.749-.433-1.356-.236-1.356.44a2.713,2.713,0,0,0,1.356,2.008l5.77,3.331c.749.433,1.356.236,1.356-.44a2.716,2.716,0,0,0-1.356-2.008" fill="#17282f"/>
      <path id="path116" d="M38.949-208.138,5.022-227.726v23.581l-.78.451L38.17-184.108l.781-.449,0-23.581" fill="#17282f"/>
      <path id="path118" d="M38.17-207.686,4.241-227.275l0,23.581L38.17-184.108v-23.579" fill="#33535f"/>
      <path id="path120" d="M24.871-211.369,19.1-214.7c-.749-.433-1.356-.236-1.356.441a2.713,2.713,0,0,0,1.356,2.007l5.77,3.332c.749.432,1.356.235,1.356-.441a2.716,2.716,0,0,0-1.356-2.008" fill="#17282f"/>
      <path id="path122" d="M537.928-148.3l-29.687-17.139V-229.1l29.688,17.14V-148.3" fill="#26b6a6"/>
      <path id="path124" d="M537.928-148.3,520.56-158.325l11.029-57.293,6.339,3.659V-148.3" fill="#01a9d5"/>
      <path id="path126" d="M537.928-211.959l42.409-24.485v63.663L537.928-148.3v-63.661" fill="#01a9d5"/>
      <path id="path128" d="M580.337-236.445l-42.409,24.485L508.24-229.1l42.411-24.485,29.687,17.14" fill="#26b6a6"/>
      <path id="path130" d="M537.928-211.959h0l-6.339-3.659,5.839-30.332,13.223-7.635,29.687,17.14-42.409,24.485" fill="#aceafa"/>
      <path id="path132" d="M541.388-179.673l33.929-19.589v23.58l.78.452-33.929,19.588-.78-.452v-23.579" fill="#26b6a6"/>
      <path id="path134" d="M542.167-155.642l-.78-.452v-23.579l33.929-19.589v.9l-33.149,19.137v23.581" fill="#1db3a0"/>
      <path id="path136" d="M542.168-179.224,576.1-198.81v23.58l-33.929,19.588v-23.581" fill="#26b6a6"/>
      <path id="path138" d="M542.167-155.642v-23.581L576.1-198.81v23.58l-33.929,19.588M554.111-180.9h0a.6.6,0,0,0,.625.669,1.5,1.5,0,0,0,.731-.229l5.771-3.331a2.713,2.713,0,0,0,1.356-2.008h0a.6.6,0,0,0-.627-.669,1.491,1.491,0,0,0-.729.229l-5.769,3.331a2.713,2.713,0,0,0-1.357,2.008h0" fill="#01bcec"/>
      <path id="path140" d="M555.468-182.9l5.769-3.331c.749-.433,1.356-.235,1.356.44a2.713,2.713,0,0,1-1.356,2.008l-5.771,3.331c-.749.433-1.357.235-1.356-.44a2.713,2.713,0,0,1,1.357-2.008" fill="#26b6a6"/>
      <path id="path142" d="M554.736-180.228a.6.6,0,0,1-.625-.669,2.713,2.713,0,0,1,1.357-2.008l5.769-3.331a1.491,1.491,0,0,1,.729-.229.6.6,0,0,1,.627.669,2.713,2.713,0,0,1-1.356,2.008l-5.771,3.331a1.5,1.5,0,0,1-.731.229" fill="#1db3a0"/>
      <path id="path144" d="M541.388-208.138l33.929-19.588v23.581l.78.451-33.929,19.587-.78-.449v-23.581" fill="#26b6a6"/>
      <path id="path146" d="M542.167-184.108l-.78-.449v-23.581l33.929-19.588v.9l-33.149,19.139v23.579" fill="#1db3a0"/>
      <path id="path148" d="M542.168-207.686,576.1-227.275v23.581l-33.929,19.587v-23.579" fill="#26b6a6"/>
      <path id="path150" d="M542.167-184.108v-23.579L576.1-227.275v23.581l-33.929,19.587m11.944-25.253h0a.6.6,0,0,0,.627.669,1.506,1.506,0,0,0,.729-.228l5.771-3.332a2.713,2.713,0,0,0,1.356-2.007h0a.6.6,0,0,0-.627-.671,1.491,1.491,0,0,0-.729.229l-5.769,3.331a2.713,2.713,0,0,0-1.357,2.008h0" fill="#01bcec"/>
      <path id="path152" d="M555.468-211.369l5.769-3.331c.749-.433,1.356-.236,1.356.441a2.713,2.713,0,0,1-1.356,2.007l-5.771,3.332c-.749.432-1.357.235-1.356-.441a2.713,2.713,0,0,1,1.357-2.008" fill="#26b6a6"/>
      <path id="path154" d="M554.737-208.691a.6.6,0,0,1-.627-.669,2.713,2.713,0,0,1,1.357-2.008l5.769-3.331a1.491,1.491,0,0,1,.729-.229.6.6,0,0,1,.627.671,2.713,2.713,0,0,1-1.356,2.007l-5.771,3.332a1.506,1.506,0,0,1-.729.228" fill="#1db3a0"/>
      <path id="path156" d="M362.942-230.491l138.806,80.134,8.427,4.865c.135.073.268.147.391.208a5.153,5.153,0,0,0,.707.28,4.395,4.395,0,0,0,.879.244,4.7,4.7,0,0,0,.585.1l.123.012a4.975,4.975,0,0,0,.743.049,4.459,4.459,0,0,0,2.22-.488,8.222,8.222,0,0,0,3.159-5.024l23.391-121.513a4.351,4.351,0,0,0,.072-.805,3.894,3.894,0,0,0-.048-.657v-.025a5.625,5.625,0,0,0-.232-.988,6.624,6.624,0,0,0-.413-.951,5.208,5.208,0,0,0-.343-.573,5.317,5.317,0,0,0-.475-.585,3.4,3.4,0,0,0-.489-.463,3.948,3.948,0,0,0-.548-.379l-147.233-85a3.863,3.863,0,0,0-.391-.207,4.3,4.3,0,0,0-.413-.184l-.2-.06a1.635,1.635,0,0,0-.536-.061,6.685,6.685,0,0,0-2.609,1.232c-1.745,1.024-3.268,1.915-3.268,1.915v.013a1.822,1.822,0,0,0-.659.461,2.692,2.692,0,0,0-.6,1.013,4.436,4.436,0,0,0-.133.5L360.467-235.918a5.519,5.519,0,0,0,2.475,5.427" fill="#26b6a6"/>
      <path id="path158" d="M362.942-230.491l138.806,80.134,8.427,4.865c.135.073.268.147.391.208a5.153,5.153,0,0,0,.707.28,4.395,4.395,0,0,0,.879.244,4.7,4.7,0,0,0,.585.1l.123.012a4.975,4.975,0,0,0,.743.049,4.459,4.459,0,0,0,2.22-.488,8.222,8.222,0,0,0,3.159-5.024l23.391-121.513a4.351,4.351,0,0,0,.072-.805,3.894,3.894,0,0,0-.048-.657v-.025a5.625,5.625,0,0,0-.232-.988,6.624,6.624,0,0,0-.413-.951,5.208,5.208,0,0,0-.343-.573,5.317,5.317,0,0,0-.475-.585,3.4,3.4,0,0,0-.489-.463,3.948,3.948,0,0,0-.548-.379l-147.233-85a3.863,3.863,0,0,0-.391-.207,4.3,4.3,0,0,0-.413-.184l-.2-.06a1.635,1.635,0,0,0-.536-.061,6.685,6.685,0,0,0-2.609,1.232c-1.745,1.024-3.268,1.915-3.268,1.915v.013a1.822,1.822,0,0,0-.659.461,2.692,2.692,0,0,0-.6,1.013,4.436,4.436,0,0,0-.133.5L360.467-235.918a5.519,5.519,0,0,0,2.475,5.427" fill="#26b6a6"/>
      <path id="path160" d="M510.565-145.284a6.234,6.234,0,0,0,5.256.195,8.222,8.222,0,0,0,3.159-5.024l23.391-121.513a5.36,5.36,0,0,0-.621-3.427L536.8-272.2a5.354,5.354,0,0,1,.623,3.427L514.029-147.248a2.41,2.41,0,0,1-3.464,1.964" fill="#17282f"/>
      <path id="path162" d="M388.516-361.334c-1.745,1.024-3.268,1.915-3.268,1.915v.013a2.585,2.585,0,0,1,2.464.219l147.23,85A5.042,5.042,0,0,1,536.8-272.2l4.952-2.853a5.208,5.208,0,0,0-.343-.573,5.317,5.317,0,0,0-.475-.585,4.59,4.59,0,0,0-1.037-.841l-147.233-85a6.392,6.392,0,0,0-.8-.391l-.2-.06a1.635,1.635,0,0,0-.536-.061,6.685,6.685,0,0,0-2.609,1.232" fill="#273e47"/>
      <path id="path164" d="M536.8-272.2a5.324,5.324,0,0,0-1.373-1.657s0,0,0,0l-.013-.011,0,0a4.287,4.287,0,0,0-.468-.315l-100.809-58.2v-5.72l105.764,61.06a4.587,4.587,0,0,1,1.037.841,5.331,5.331,0,0,1,.475.585,5.22,5.22,0,0,1,.343.573L536.8-272.2" fill="#2c4954"/>
      <path id="path166" d="M514.032-147.252l23.387-121.517a5.493,5.493,0,0,0-2.479-5.421l-147.228-85a2.44,2.44,0,0,0-3.86,1.764L360.467-235.913a5.493,5.493,0,0,0,2.476,5.421l147.229,85a2.441,2.441,0,0,0,3.86-1.764" fill="#26b6a6"/>
      <path id="path168" d="M514.032-147.252l23.387-121.517a5.493,5.493,0,0,0-2.479-5.421l-147.228-85a2.44,2.44,0,0,0-3.86,1.764L360.467-235.913a5.493,5.493,0,0,0,2.476,5.421l147.229,85a2.441,2.441,0,0,0,3.86-1.764" fill="#273e47"/>
      <path id="path170" d="M511.683-145.048a3.033,3.033,0,0,1-1.511-.44l-147.229-85a5.557,5.557,0,0,1-2.552-4.612,4.4,4.4,0,0,1,.076-.809l11.324-58.844,35.572,20.537-3.753,19.5L400.643-239.3c-.015.073-.025.149-.035.225a3.979,3.979,0,0,0,1.816,3.679l105.914,61.151c.077.044.155.084.232.119l.052.028a3.715,3.715,0,0,0,.509.2,3.176,3.176,0,0,0,.632.175,3.541,3.541,0,0,0,.42.071l.088.009a3.8,3.8,0,0,0,.536.035h.059a3.191,3.191,0,0,0,1.537-.351,5.918,5.918,0,0,0,2.272-3.615L531.5-264.993a3.072,3.072,0,0,0,.053-.579h0a3,3,0,0,0-.035-.473v-.017h0a3.957,3.957,0,0,0-.167-.711,4.745,4.745,0,0,0-.3-.684,3.688,3.688,0,0,0-.244-.413,3.885,3.885,0,0,0-.343-.42,2.511,2.511,0,0,0-.351-.335,2.479,2.479,0,0,0-.285-.2c-.036-.023-.073-.045-.111-.067h0l-95.59-55.188v-8.309l100.809,58.2a5.555,5.555,0,0,1,2.553,4.612,4.31,4.31,0,0,1-.053.684c-.007.043-.013.084-.021.125L531.8-239.586l-17.771,92.334a2.769,2.769,0,0,1-1.1,1.828,2.209,2.209,0,0,1-1.248.376" fill="#1e3139"/>
      <path id="path172" d="M402.424-235.4l99.854,57.648,6.063,3.5.281.148a3.717,3.717,0,0,0,.509.2,3.176,3.176,0,0,0,.632.175,3.542,3.542,0,0,0,.42.071l.088.009a3.8,3.8,0,0,0,.536.035,3.225,3.225,0,0,0,1.6-.351,5.918,5.918,0,0,0,2.272-3.615L531.5-264.993a3.072,3.072,0,0,0,.053-.579,2.989,2.989,0,0,0-.035-.473v-.017a3.952,3.952,0,0,0-.167-.711,4.738,4.738,0,0,0-.3-.684,3.687,3.687,0,0,0-.244-.413,3.886,3.886,0,0,0-.343-.42,2.511,2.511,0,0,0-.351-.335,3.017,3.017,0,0,0-.4-.271L423.8-330.046l-.281-.148-.3-.132-.14-.044a1.221,1.221,0,0,0-.385-.044,4.822,4.822,0,0,0-1.877.887c-1.256.737-2.352,1.377-2.352,1.377v.009a1.328,1.328,0,0,0-.475.333,1.933,1.933,0,0,0-.429.727,3.02,3.02,0,0,0-.1.36L400.643-239.3a3.967,3.967,0,0,0,1.781,3.9" fill="#26b6a6"/>
      <path id="path174" d="M402.424-235.4l99.854,57.648,6.063,3.5.281.148a3.717,3.717,0,0,0,.509.2,3.176,3.176,0,0,0,.632.175,3.542,3.542,0,0,0,.42.071l.088.009a3.8,3.8,0,0,0,.536.035,3.225,3.225,0,0,0,1.6-.351,5.918,5.918,0,0,0,2.272-3.615L531.5-264.993a3.072,3.072,0,0,0,.053-.579,2.989,2.989,0,0,0-.035-.473v-.017a3.952,3.952,0,0,0-.167-.711,4.738,4.738,0,0,0-.3-.684,3.687,3.687,0,0,0-.244-.413,3.886,3.886,0,0,0-.343-.42,2.511,2.511,0,0,0-.351-.335,3.017,3.017,0,0,0-.4-.271L423.8-330.046l-.281-.148-.3-.132-.14-.044a1.221,1.221,0,0,0-.385-.044,4.822,4.822,0,0,0-1.877.887c-1.256.737-2.352,1.377-2.352,1.377v.009a1.328,1.328,0,0,0-.475.333,1.933,1.933,0,0,0-.429.727,3.02,3.02,0,0,0-.1.36L400.643-239.3a3.967,3.967,0,0,0,1.781,3.9" fill="#26b6a6"/>
      <path id="path176" d="M508.623-174.1a4.488,4.488,0,0,0,3.781.141,5.918,5.918,0,0,0,2.272-3.615L531.5-264.993a3.83,3.83,0,0,0-.448-2.464l-3.561,2.052a3.842,3.842,0,0,1,.448,2.465l-16.828,87.425a1.731,1.731,0,0,1-2.491,1.412" fill="#dadbd8"/>
      <path id="path178" d="M420.822-329.527c-1.256.737-2.352,1.377-2.352,1.377v.009a1.855,1.855,0,0,1,1.772.157L526.16-266.834a3.626,3.626,0,0,1,1.333,1.429l3.561-2.052a3.688,3.688,0,0,0-.244-.413,3.885,3.885,0,0,0-.343-.42,3.234,3.234,0,0,0-.747-.605L423.8-330.046a4.565,4.565,0,0,0-.58-.28l-.14-.044a1.221,1.221,0,0,0-.385-.044,4.822,4.822,0,0,0-1.877.887" fill="#fafaf9"/>
      <path id="path180" d="M511.116-175.517l16.824-87.42a3.95,3.95,0,0,0-1.783-3.9L420.243-327.987a1.756,1.756,0,0,0-2.777,1.268L400.643-239.3a3.95,3.95,0,0,0,1.781,3.9l105.914,61.151a1.756,1.756,0,0,0,2.777-1.268" fill="#f3f2f1"/>
      <path id="path182" d="M432.778-261.106a3.087,3.087,0,0,0,1.353-2.444V-422.528a3.184,3.184,0,0,0-1.441-2.5l-99.834-57.64a3.1,3.1,0,0,0-2.793-.052,3.093,3.093,0,0,0-1.351,2.444v158.98a3.182,3.182,0,0,0,1.441,2.495l99.836,57.64a3.085,3.085,0,0,0,2.791.052" fill="#e7e8e5"/>
      <path id="path184" d="M328.722-480.524c.121-.732.708-.988,1.428-.573l99.841,57.635A2.807,2.807,0,0,1,431-422.378l2.708-1.561a2.936,2.936,0,0,0-1.025-1.084l-99.829-57.636a3.1,3.1,0,0,0-2.793-.061,3.161,3.161,0,0,0-1.341,2.2" fill="#fafaf9"/>
      <path id="path186" d="M430.186-261.059a3.066,3.066,0,0,0,2.6-.049,3.077,3.077,0,0,0,1.343-2.439V-422.523a2.958,2.958,0,0,0-.415-1.416L431-422.378a2.843,2.843,0,0,1,.428,1.415v158.976c0,.843-.551,1.232-1.245.928" fill="#dadbd8"/>
      <path id="path188" d="M429.987-261.158,330.151-318.8a3.182,3.182,0,0,1-1.441-2.495v-158.98c0-.919.644-1.291,1.441-.832l99.836,57.641a3.184,3.184,0,0,1,1.44,2.495v158.98c0,.919-.645,1.291-1.44.831" fill="#f3f2f1"/>
      <path id="path190" d="M423-349.83a2.718,2.718,0,0,1-1.319-.415L338.451-398.3A4.91,4.91,0,0,1,336-401.931a1.08,1.08,0,0,1,1.132-1.212,2.718,2.718,0,0,1,1.319.415l83.234,48.059a4.906,4.906,0,0,1,2.451,3.628A1.081,1.081,0,0,1,423-349.83" fill="#b3c0c1"/>
      <path id="path192" d="M423-336.555a2.718,2.718,0,0,1-1.319-.415l-83.234-48.06A4.91,4.91,0,0,1,336-388.656a1.081,1.081,0,0,1,1.133-1.212,2.7,2.7,0,0,1,1.317.415L421.686-341.4a4.9,4.9,0,0,1,2.451,3.628A1.08,1.08,0,0,1,423-336.555" fill="#b3c0c1"/>
      <path id="path194" d="M423-323.282a2.7,2.7,0,0,1-1.319-.415l-83.234-48.057A4.915,4.915,0,0,1,336-375.382a1.08,1.08,0,0,1,1.132-1.212,2.7,2.7,0,0,1,1.319.415l83.234,48.059a4.9,4.9,0,0,1,2.451,3.627A1.08,1.08,0,0,1,423-323.282" fill="#b3c0c1"/>
      <path id="path196" d="M423-310.007a2.715,2.715,0,0,1-1.319-.413l-83.234-48.06A4.908,4.908,0,0,1,336-362.107a1.081,1.081,0,0,1,1.133-1.212,2.718,2.718,0,0,1,1.317.415l83.234,48.059a4.9,4.9,0,0,1,2.451,3.627A1.08,1.08,0,0,1,423-310.007" fill="#b3c0c1"/>
      <path id="path198" d="M423-389.654a2.7,2.7,0,0,1-1.319-.415l-83.234-48.059A4.91,4.91,0,0,1,336-441.754a1.08,1.08,0,0,1,1.132-1.212,2.7,2.7,0,0,1,1.319.415l83.234,48.057a4.908,4.908,0,0,1,2.451,3.628A1.08,1.08,0,0,1,423-389.654" fill="#b3c0c1"/>
      <path id="path200" d="M423-376.379a2.718,2.718,0,0,1-1.319-.415l-83.234-48.059A4.91,4.91,0,0,1,336-428.48a1.081,1.081,0,0,1,1.132-1.212,2.718,2.718,0,0,1,1.319.415l83.234,48.06a4.9,4.9,0,0,1,2.451,3.627A1.08,1.08,0,0,1,423-376.379" fill="#b3c0c1"/>
      <path id="path202" d="M423-402.91a2.718,2.718,0,0,1-1.319-.415l-83.234-48.059A4.91,4.91,0,0,1,336-455.011a1.08,1.08,0,0,1,1.132-1.211,2.7,2.7,0,0,1,1.319.415l83.234,48.057a4.905,4.905,0,0,1,2.451,3.628A1.08,1.08,0,0,1,423-402.91" fill="#b3c0c1"/>
      <path id="path204" d="M423-363.106a2.715,2.715,0,0,1-1.319-.413l-83.234-48.059A4.913,4.913,0,0,1,336-415.206a1.081,1.081,0,0,1,1.133-1.212,2.718,2.718,0,0,1,1.317.415l83.234,48.059a4.9,4.9,0,0,1,2.451,3.628A1.079,1.079,0,0,1,423-363.106" fill="#b3c0c1"/>
      <path id="path206" d="M423-296.733a2.714,2.714,0,0,1-1.317-.413l-83.234-48.06A4.911,4.911,0,0,1,336-348.832a1.08,1.08,0,0,1,1.132-1.212,2.715,2.715,0,0,1,1.319.413l83.234,48.06a4.9,4.9,0,0,1,2.451,3.627A1.081,1.081,0,0,1,423-296.733" fill="#b3c0c1"/>
      <path id="path208" d="M423-283.458a2.718,2.718,0,0,1-1.319-.415l-83.234-48.059A4.91,4.91,0,0,1,336-335.559a1.079,1.079,0,0,1,1.132-1.211,2.715,2.715,0,0,1,1.319.413L421.686-288.3a4.905,4.905,0,0,1,2.451,3.628A1.08,1.08,0,0,1,423-283.458" fill="#b3c0c1"/>
      <path id="path210" d="M356.991-346.108a2.347,2.347,0,0,1,.907-2.087,1.075,1.075,0,0,1,.235-.136l4.772-2.787.005,0,.011-.007v0a2.325,2.325,0,0,1,2.32.235l95.424,55.028,2.779-11.205a3.09,3.09,0,0,1,1.38-1.825l-.02-.008,4.967-2.884,0,.02a2.931,2.931,0,0,1,3.021.079l40.6,23.433a7.292,7.292,0,0,1,3.3,5.716l-.005,135.378a2.366,2.366,0,0,1-.887,2.092l-5.111,2.961a2.357,2.357,0,0,1-2.248-.273l-148.2-85.565a7.3,7.3,0,0,1-3.3-5.717l.059-112.448" fill="#26b6a6"/>
      <path id="path212" d="M464.888-308.943a2.954,2.954,0,0,1,2.957.137l40.595,23.429a7.022,7.022,0,0,1,2.332,2.471l4.945-2.881a6.625,6.625,0,0,0-2.332-2.469l-40.595-23.431a2.946,2.946,0,0,0-3.019-.076v-.015l-4.884,2.835" fill="#33535f"/>
      <path id="path214" d="M358.132-348.331a2.459,2.459,0,0,1,2.164.32l95.52,55.107a2.882,2.882,0,0,0,4.4-1.753l.444-1.2-95.422-55.031a2.918,2.918,0,0,0-1.464-.443,1.718,1.718,0,0,0-.852.213h-.016l-4.777,2.791" fill="#33535f"/>
      <path id="path216" d="M356.994-346.1l-.059,112.446a7.277,7.277,0,0,0,3.305,5.72l148.582,85.781a1.947,1.947,0,0,0,2.919-1.685V-279.655a6.672,6.672,0,0,0-.964-3.244,6.984,6.984,0,0,0-2.329-2.464l-40.6-23.439a2.978,2.978,0,0,0-2.964-.135l-.085.049h.024a3.083,3.083,0,0,0-1.377,1.829l-2.784,11.2-.439,1.207a2.884,2.884,0,0,1-4.4,1.757L360.3-348a2.442,2.442,0,0,0-2.159-.317l-.135.073-.072.036-.037.024a2.363,2.363,0,0,0-.9,2.087" fill="#273e47"/>
      <path id="path218" d="M426.254-238.034a1.546,1.546,0,0,1,.667-.151,1.563,1.563,0,0,1,1.415.9l4.439,9.395v-16.663a1.565,1.565,0,0,1,1.564-1.564,1.564,1.564,0,0,1,1.564,1.564v19.961l4.769-4.589a1.562,1.562,0,0,1,2.211.043,1.563,1.563,0,0,1-.043,2.212l-7.416,7.136a1.553,1.553,0,0,1-1.369.411,1.56,1.56,0,0,1-1.129-.869l-7.417-15.7a1.565,1.565,0,0,1,.747-2.083" fill="#01bcec"/>
      <path id="path220" d="M444.991-234.467a1.563,1.563,0,0,1-1.564-1.563v-9.436l-18.176-10.495v7.631a1.565,1.565,0,0,1-1.564,1.564,1.565,1.565,0,0,1-1.564-1.564v-10.339a1.567,1.567,0,0,1,.781-1.355,1.58,1.58,0,0,1,.783-.209,1.575,1.575,0,0,1,.781.209l21.3,12.3a1.56,1.56,0,0,1,.783,1.355v10.339a1.563,1.563,0,0,1-1.563,1.563" fill="#01bcec"/>
      <path id="path222" d="M510.541-142.053l.147-.048,5.109-2.964a2.4,2.4,0,0,0,.891-2.1V-282.541a6.705,6.705,0,0,0-.976-3.244l-4.94,2.879v.012a6.672,6.672,0,0,1,.964,3.244v135.8a1.92,1.92,0,0,1-1.195,1.792" fill="#17282f"/>
      <path id="path224" d="M217.4-230.491,78.589-150.357l-8.426,4.865c-.134.073-.269.147-.391.208a5.123,5.123,0,0,1-.707.28,4.363,4.363,0,0,1-.878.244,4.7,4.7,0,0,1-.585.1l-.122.012a4.985,4.985,0,0,1-.744.049,4.46,4.46,0,0,1-2.219-.488,8.224,8.224,0,0,1-3.159-5.024L37.968-271.626a4.384,4.384,0,0,1-.074-.805,4,4,0,0,1,.049-.657v-.025a5.485,5.485,0,0,1,.232-.988,6.515,6.515,0,0,1,.415-.951,5.325,5.325,0,0,1,.341-.573,5.44,5.44,0,0,1,.476-.585,3.462,3.462,0,0,1,.487-.463,3.956,3.956,0,0,1,.549-.379l147.232-85a3.865,3.865,0,0,1,.391-.207,4.185,4.185,0,0,1,.415-.184l.195-.06a1.646,1.646,0,0,1,.537-.061,6.676,6.676,0,0,1,2.609,1.232c1.744,1.024,3.268,1.915,3.268,1.915v.013a1.845,1.845,0,0,1,.659.461,2.69,2.69,0,0,1,.6,1.013,4.462,4.462,0,0,1,.135.5l23.391,121.513a5.518,5.518,0,0,1-2.476,5.427" fill="#26b6a6"/>
      <path id="path226" d="M217.4-230.491,78.589-150.357l-8.426,4.865c-.134.073-.269.147-.391.208a5.123,5.123,0,0,1-.707.28,4.363,4.363,0,0,1-.878.244,4.7,4.7,0,0,1-.585.1l-.122.012a4.985,4.985,0,0,1-.744.049,4.46,4.46,0,0,1-2.219-.488,8.224,8.224,0,0,1-3.159-5.024L37.968-271.626a4.384,4.384,0,0,1-.074-.805,4,4,0,0,1,.049-.657v-.025a5.485,5.485,0,0,1,.232-.988,6.515,6.515,0,0,1,.415-.951,5.325,5.325,0,0,1,.341-.573,5.44,5.44,0,0,1,.476-.585,3.462,3.462,0,0,1,.487-.463,3.956,3.956,0,0,1,.549-.379l147.232-85a3.865,3.865,0,0,1,.391-.207,4.185,4.185,0,0,1,.415-.184l.195-.06a1.646,1.646,0,0,1,.537-.061,6.676,6.676,0,0,1,2.609,1.232c1.744,1.024,3.268,1.915,3.268,1.915v.013a1.845,1.845,0,0,1,.659.461,2.69,2.69,0,0,1,.6,1.013,4.462,4.462,0,0,1,.135.5l23.391,121.513a5.518,5.518,0,0,1-2.476,5.427" fill="#26b6a6"/>
      <path id="path228" d="M37.939-273.065c0-.009,0-.02,0-.029v.005c0,.008,0,.016,0,.024m.4-1.457a5.761,5.761,0,0,1,.254-.531c-.09.173-.176.351-.254.531" fill="#c3c5c2"/>
      <path id="path230" d="M64.458-145.124a8.3,8.3,0,0,1-3.1-4.989L48.749-215.618,42.91-245.951l-4.942-25.675h0a4.594,4.594,0,0,1-.029-1.439c0-.008,0-.016,0-.024v-.005a5.692,5.692,0,0,1,.393-1.428c.078-.18.163-.357.254-.531h0l4.947,2.852a5.6,5.6,0,0,0-.692,2.623,4.329,4.329,0,0,0,.057.709q.008.048.017.1l4.42,22.964L63.651-161.05v13.888a2.906,2.906,0,0,0,.412,1.612c.009.013.018.027.027.039s0,0,0,0l0,0a1.725,1.725,0,0,0,.364.381" fill="#aceafa"/>
      <path id="path232" d="M40.3-276.965c.048-.031.1-.06.145-.088-.048.028-.1.057-.145.088" fill="#fff"/>
      <path id="path234" d="M43.537-272.2l-4.947-2.852a5.323,5.323,0,0,1,.341-.573,5.438,5.438,0,0,1,.476-.585,4.667,4.667,0,0,1,.892-.753q.073-.046.145-.088h0l105.765-61.06v5.72l-35.682,20.6a2.738,2.738,0,0,0-1.352-.355,3.079,3.079,0,0,0-1.064.2,3.785,3.785,0,0,0-.563.263l-40.6,23.431A6.285,6.285,0,0,0,64.94-286.3a8.13,8.13,0,0,0-.687,1.224L45.4-274.19c-.075.044-.15.091-.224.14a4.176,4.176,0,0,0-.509.4,5.435,5.435,0,0,0-1.127,1.452" fill="#aceafa"/>
      <path id="path236" d="M66.307-147.252,42.92-268.769A5.492,5.492,0,0,1,45.4-274.19l147.229-85a2.441,2.441,0,0,1,3.86,1.764l23.385,121.516a5.494,5.494,0,0,1-2.477,5.421l-147.228,85a2.441,2.441,0,0,1-3.86-1.764" fill="#26b6a6"/>
      <path id="path238" d="M63.651-161.05,42.92-268.769c-.006-.033-.012-.067-.018-.1a4.329,4.329,0,0,1-.057-.709A5.555,5.555,0,0,1,45.4-274.19l18.856-10.887a7.116,7.116,0,0,0-.474,1.42,5.222,5.222,0,0,0-.128,1.116v6.119L50.615-268.9h0l-.1.063a2.548,2.548,0,0,0-.291.208,2.463,2.463,0,0,0-.351.335,3.834,3.834,0,0,0-.342.42,3.969,3.969,0,0,0-.246.413h0c-.065.12-.124.244-.178.371-.044.1-.085.207-.12.313a3.936,3.936,0,0,0-.167.711v.015c0,.005,0,.011,0,.015a2.946,2.946,0,0,0-.033.461h0a3.165,3.165,0,0,0,.053.579h0l14.816,76.969v26.973m53.219-146.1a3.078,3.078,0,0,0-1.344-1.741h.01l-.014-.008.014-.005-4.967-2.884v.009l-.005,0v.011c-.013-.008-.027-.016-.04-.023l35.682-20.6v8.309L116.87-307.146" fill="#01a9d5"/>
      <path id="path240" d="M177.914-235.4,78.058-177.752,72-174.25l-.281.148a3.758,3.758,0,0,1-.508.2,3.2,3.2,0,0,1-.632.175,3.547,3.547,0,0,1-.42.071l-.088.009a3.8,3.8,0,0,1-.535.035,3.227,3.227,0,0,1-1.6-.351,5.921,5.921,0,0,1-2.272-3.615L48.835-264.993a3.165,3.165,0,0,1-.053-.579,2.8,2.8,0,0,1,.035-.473v-.017a3.935,3.935,0,0,1,.167-.711,4.663,4.663,0,0,1,.3-.684,3.966,3.966,0,0,1,.246-.413,3.834,3.834,0,0,1,.342-.42,2.463,2.463,0,0,1,.351-.335,2.986,2.986,0,0,1,.394-.271l105.919-61.151.281-.148.3-.132.141-.044a1.217,1.217,0,0,1,.385-.044,4.822,4.822,0,0,1,1.877.887c1.255.737,2.352,1.377,2.352,1.377v.009a1.324,1.324,0,0,1,.473.333,1.917,1.917,0,0,1,.429.727,3.32,3.32,0,0,1,.1.36L179.7-239.3a3.97,3.97,0,0,1-1.781,3.9" fill="#26b6a6"/>
      <path id="path242" d="M177.914-235.4,78.058-177.752,72-174.25l-.281.148a3.758,3.758,0,0,1-.508.2,3.2,3.2,0,0,1-.632.175,3.547,3.547,0,0,1-.42.071l-.088.009a3.8,3.8,0,0,1-.535.035,3.227,3.227,0,0,1-1.6-.351,5.921,5.921,0,0,1-2.272-3.615L48.835-264.993a3.165,3.165,0,0,1-.053-.579,2.8,2.8,0,0,1,.035-.473v-.017a3.935,3.935,0,0,1,.167-.711,4.663,4.663,0,0,1,.3-.684,3.966,3.966,0,0,1,.246-.413,3.834,3.834,0,0,1,.342-.42,2.463,2.463,0,0,1,.351-.335,2.986,2.986,0,0,1,.394-.271l105.919-61.151.281-.148.3-.132.141-.044a1.217,1.217,0,0,1,.385-.044,4.822,4.822,0,0,1,1.877.887c1.255.737,2.352,1.377,2.352,1.377v.009a1.324,1.324,0,0,1,.473.333,1.917,1.917,0,0,1,.429.727,3.32,3.32,0,0,1,.1.36L179.7-239.3a3.97,3.97,0,0,1-1.781,3.9" fill="#26b6a6"/>
      <path id="path244" d="M71.715-174.1a4.488,4.488,0,0,1-3.781.141,5.921,5.921,0,0,1-2.272-3.615L48.835-264.993a3.849,3.849,0,0,1,.447-2.464l3.562,2.052a3.848,3.848,0,0,0-.447,2.465l16.827,87.425a1.732,1.732,0,0,0,2.491,1.412" fill="#dadbd8"/>
      <path id="path246" d="M159.517-329.527c1.255.737,2.352,1.377,2.352,1.377v.009a1.854,1.854,0,0,0-1.772.157L54.177-266.834a3.63,3.63,0,0,0-1.333,1.429l-3.562-2.052a3.967,3.967,0,0,1,.246-.413,3.831,3.831,0,0,1,.342-.42,3.257,3.257,0,0,1,.745-.605l105.919-61.151a4.543,4.543,0,0,1,.579-.28l.141-.044a1.217,1.217,0,0,1,.385-.044,4.822,4.822,0,0,1,1.877.887" fill="#fafaf9"/>
      <path id="path248" d="M69.222-175.517,52.4-262.937a3.953,3.953,0,0,1,1.783-3.9L160.1-327.987a1.756,1.756,0,0,1,2.777,1.268L179.7-239.3a3.952,3.952,0,0,1-1.781,3.9L72-174.249a1.756,1.756,0,0,1-2.777-1.268" fill="#f3f2f1"/>
      <path id="path250" d="M147.56-261.106a3.089,3.089,0,0,1-1.352-2.444V-422.528a3.184,3.184,0,0,1,1.441-2.5l99.834-57.64a3.092,3.092,0,0,1,2.792-.052,3.091,3.091,0,0,1,1.352,2.444v158.98a3.181,3.181,0,0,1-1.44,2.495l-99.836,57.64a3.088,3.088,0,0,1-2.792.052" fill="#e7e8e5"/>
      <path id="path252" d="M251.615-480.524c-.121-.732-.707-.988-1.427-.573l-99.841,57.635a2.8,2.8,0,0,0-1.012,1.085l-2.708-1.561a2.915,2.915,0,0,1,1.025-1.084l99.829-57.636a3.093,3.093,0,0,1,2.792-.061,3.157,3.157,0,0,1,1.341,2.2" fill="#fafaf9"/>
      <path id="path254" d="M150.153-261.059a3.069,3.069,0,0,1-2.6-.049,3.076,3.076,0,0,1-1.341-2.439V-422.524a2.957,2.957,0,0,1,.415-1.415l2.708,1.561a2.829,2.829,0,0,0-.428,1.415v158.976c0,.843.549,1.232,1.245.928" fill="#dadbd8"/>
      <path id="path256" d="M150.352-261.158l99.836-57.64a3.181,3.181,0,0,0,1.44-2.495v-158.98c0-.919-.645-1.291-1.44-.832l-99.836,57.641a3.179,3.179,0,0,0-1.441,2.495v158.98c0,.919.645,1.291,1.441.831" fill="#f3f2f1"/>
      <path id="path258" d="M157.334-349.83a1.081,1.081,0,0,1-1.133-1.212,4.907,4.907,0,0,1,2.452-3.628l83.233-48.059a2.718,2.718,0,0,1,1.319-.415,1.08,1.08,0,0,1,1.132,1.212,4.907,4.907,0,0,1-2.451,3.628l-83.233,48.059a2.726,2.726,0,0,1-1.319.415" fill="#b3c0c1"/>
      <path id="path260" d="M157.334-336.555a1.081,1.081,0,0,1-1.133-1.212,4.9,4.9,0,0,1,2.452-3.628l83.233-48.059a2.7,2.7,0,0,1,1.319-.415,1.08,1.08,0,0,1,1.132,1.212,4.907,4.907,0,0,1-2.451,3.627l-83.233,48.06a2.726,2.726,0,0,1-1.319.415" fill="#b3c0c1"/>
      <path id="path262" d="M157.334-323.282a1.081,1.081,0,0,1-1.133-1.212,4.905,4.905,0,0,1,2.452-3.627l83.233-48.059a2.7,2.7,0,0,1,1.319-.415,1.08,1.08,0,0,1,1.132,1.212,4.911,4.911,0,0,1-2.451,3.628L158.653-323.7a2.712,2.712,0,0,1-1.319.415" fill="#b3c0c1"/>
      <path id="path264" d="M223.01-347.58a1.75,1.75,0,0,0-.569-.615,1.107,1.107,0,0,0-.235-.137h0l-2.764-1.613L241.886-362.9a2.719,2.719,0,0,1,1.319-.415,1.08,1.08,0,0,1,1.132,1.212,4.9,4.9,0,0,1-2.451,3.627l-18.876,10.9" fill="#b3c0c1"/>
      <path id="path266" d="M157.334-389.654a1.081,1.081,0,0,1-1.133-1.212,4.909,4.909,0,0,1,2.452-3.628l83.233-48.057a2.7,2.7,0,0,1,1.319-.415,1.08,1.08,0,0,1,1.132,1.212,4.907,4.907,0,0,1-2.451,3.627l-83.233,48.059a2.709,2.709,0,0,1-1.319.415" fill="#b3c0c1"/>
      <path id="path268" d="M157.334-376.379a1.081,1.081,0,0,1-1.133-1.212,4.9,4.9,0,0,1,2.452-3.627l83.233-48.06a2.718,2.718,0,0,1,1.319-.415,1.08,1.08,0,0,1,1.132,1.212,4.907,4.907,0,0,1-2.451,3.628l-83.233,48.059a2.726,2.726,0,0,1-1.319.415" fill="#b3c0c1"/>
      <path id="path270" d="M157.334-402.91a1.081,1.081,0,0,1-1.133-1.212,4.907,4.907,0,0,1,2.452-3.628l83.233-48.057a2.708,2.708,0,0,1,1.319-.415,1.079,1.079,0,0,1,1.132,1.211,4.907,4.907,0,0,1-2.451,3.628l-83.233,48.059a2.727,2.727,0,0,1-1.319.415" fill="#b3c0c1"/>
      <path id="path272" d="M157.334-363.106a1.08,1.08,0,0,1-1.133-1.211,4.905,4.905,0,0,1,2.452-3.628L241.886-416a2.718,2.718,0,0,1,1.319-.415,1.08,1.08,0,0,1,1.132,1.212,4.909,4.909,0,0,1-2.451,3.628l-83.233,48.059a2.724,2.724,0,0,1-1.319.413" fill="#b3c0c1"/>
      <path id="path274" d="M223.353-334.5l0-4.424,18.536-10.7a2.715,2.715,0,0,1,1.319-.413,1.08,1.08,0,0,1,1.132,1.212,4.907,4.907,0,0,1-2.451,3.627l-18.533,10.7" fill="#b3c0c1"/>
      <path id="path276" d="M223.359-321.234l0-4.424,18.529-10.7a2.719,2.719,0,0,1,1.319-.413,1.079,1.079,0,0,1,1.132,1.211,4.907,4.907,0,0,1-2.451,3.628l-18.527,10.7" fill="#b3c0c1"/>
      <path id="path278" d="M223.346-346.108a2.35,2.35,0,0,0-.905-2.087,1.107,1.107,0,0,0-.235-.137l-4.772-2.785-.005,0-.011-.007v0a2.325,2.325,0,0,0-2.32.235l-95.425,55.028L116.9-307.067a3.092,3.092,0,0,0-1.379-1.825l.02-.008-4.967-2.884,0,.02a2.933,2.933,0,0,0-3.022.079l-40.6,23.433a7.3,7.3,0,0,0-3.3,5.716l0,135.378a2.365,2.365,0,0,0,.887,2.092l5.111,2.961a2.355,2.355,0,0,0,2.247-.273l148.2-85.565a7.3,7.3,0,0,0,3.3-5.717l-.06-112.448" fill="#26b6a6"/>
      <path id="path280" d="M64.94-286.3a6.285,6.285,0,0,1,2.012-1.956l40.6-23.431a3.785,3.785,0,0,1,.563-.263,3.755,3.755,0,0,0-.559.264l-40.6,23.433A6.423,6.423,0,0,0,64.94-286.3" fill="#69ccc0"/>
      <path id="path282" d="M110.573-311.765l-.007,0v-.011l.005,0,0,.011" fill="#59c7b6"/>
      <path id="path284" d="M69.564-282.907l-4.939-2.877h0l-.006,0c.1-.176.207-.347.32-.513a6.423,6.423,0,0,1,2.012-1.952l40.6-23.433a3.757,3.757,0,0,1,.559-.264,3.083,3.083,0,0,1,1.058-.192,2.734,2.734,0,0,1,1.4.379v-.005l.007,0,0-.011,4.88,2.832a2.678,2.678,0,0,0-1.3-.333,3.328,3.328,0,0,0-1.655.471L71.9-285.377a6.635,6.635,0,0,0-1.953,1.881c-.134.191-.262.387-.381.588" fill="#aceafa"/>
      <path id="path286" d="M119.673-295.862l26.535-15.3h0l-26.535,15.3" fill="#f9f9f8"/>
      <path id="path288" d="M146.208-311.163h0l.005,0h0l-.005,0m2.7-1.557h0" fill="#f0f0ee"/>
      <path id="path290" d="M146.213-311.166h0l2.695-1.555h0l-2.695,1.555" fill="#e8e9e6"/>
      <path id="path292" d="M148.91-312.722h0L215.1-350.892a3.2,3.2,0,0,1,1.068-.408,3.382,3.382,0,0,0-1.067.411L148.91-312.722m70.532-37.224-2.008-1.172-.005,0h0l2.013,1.176h0" fill="#f9f9f8"/>
      <path id="path294" d="M222.206-348.332l-2.764-1.613h0l2.764,1.613" fill="#d0d9d8"/>
      <path id="path296" d="M122.869-292.437a2.881,2.881,0,0,1-2.752-2.221l-.445-1.2,26.535-15.3.005,0,2.695-1.555h0L215.1-350.89a3.382,3.382,0,0,1,1.067-.411,2.406,2.406,0,0,1,.395-.035,1.727,1.727,0,0,1,.853.213h.016l.005,0,2.008,1.172,2.764,1.613a1.766,1.766,0,0,0-.68-.131,3.025,3.025,0,0,0-1.484.452L124.523-292.9a3.322,3.322,0,0,1-1.654.468" fill="#aceafa"/>
      <path id="path298" d="M223.345-346.1l.059,112.446a7.277,7.277,0,0,1-3.305,5.72L71.516-142.154A1.946,1.946,0,0,1,68.6-143.84V-279.655a6.679,6.679,0,0,1,.963-3.244,7,7,0,0,1,2.329-2.464l40.6-23.439a2.978,2.978,0,0,1,2.964-.135l.085.049h-.024a3.086,3.086,0,0,1,1.379,1.829l2.782,11.2.44,1.207a2.885,2.885,0,0,0,4.4,1.757L220.039-348a2.441,2.441,0,0,1,2.159-.317l.133.073.073.036.037.024a2.367,2.367,0,0,1,.9,2.087" fill="#01bcec"/>
      <path id="path300" d="M137.914-241.554a1.553,1.553,0,0,0,.668.151,1.562,1.562,0,0,0,1.415-.9l4.439-9.4v16.664A1.564,1.564,0,0,0,146-233.467a1.565,1.565,0,0,0,1.564-1.564v-19.961l4.768,4.588a1.563,1.563,0,0,0,2.212-.041,1.565,1.565,0,0,0-.043-2.212l-7.417-7.137a1.556,1.556,0,0,0-1.368-.411,1.567,1.567,0,0,0-1.131.871l-7.416,15.7a1.563,1.563,0,0,0,.745,2.081" fill="#fff"/>
      <path id="path302" d="M156.652-246.455a1.564,1.564,0,0,0-1.564,1.564v9.436l-18.176,10.493v-7.631a1.564,1.564,0,0,0-1.563-1.564,1.565,1.565,0,0,0-1.564,1.564v10.34a1.561,1.561,0,0,0,.781,1.353,1.562,1.562,0,0,0,.783.209,1.561,1.561,0,0,0,.781-.209l21.3-12.3a1.564,1.564,0,0,0,.781-1.355v-10.339a1.563,1.563,0,0,0-1.563-1.564" fill="#fff"/>
      <path id="path304" d="M69.682-142.09l-.031-.011-5.11-2.964c-.028-.019-.056-.039-.083-.059l.02.012c.021.016.043.031.065.045l5.111,2.961.028.015" fill="#bfc0be"/>
      <path id="path306" d="M64.478-145.112l-.02-.012a1.725,1.725,0,0,1-.364-.381,1.667,1.667,0,0,0,.384.393m-.387-.4s0,0,0,0,0,0,0,0m-.028-.041a2.906,2.906,0,0,1-.412-1.612V-161.05l0,.025v13.867a2.9,2.9,0,0,0,.407,1.608" fill="#069c86"/>
      <path id="path308" d="M63.656-161.025l0-.025v-26.973l0,.021v26.977" fill="#05a88f"/>
      <path id="path310" d="M63.655-188l0-.021v-16.44l0,.017V-188" fill="#a7aaa9"/>
      <path id="path312" d="M63.651-276.422v-6.119a5.223,5.223,0,0,1,.128-1.116,5.32,5.32,0,0,0-.127,1.12v6.115h0" fill="#05a88f"/>
      <path id="path314" d="M63.651-272.3v-4.117h0v4.116h0" fill="#bfc0be"/>
      <path id="path316" d="M63.654-204.446l0-.017V-272.3h0v67.86" fill="#babcba"/>
      <path id="path318" d="M69.709-142.082l-.027-.008-.028-.015-5.111-2.961c-.022-.015-.044-.029-.065-.045h0a1.668,1.668,0,0,1-.384-.393l0,0s0,0,0,0-.018-.025-.027-.039a2.9,2.9,0,0,1-.407-1.608V-282.537a5.32,5.32,0,0,1,.127-1.12,7.577,7.577,0,0,1,.847-2.128l4.939,2.877,0,.008a6.679,6.679,0,0,0-.963,3.244V-143.84a1.93,1.93,0,0,0,1.112,1.757" fill="#01a9d5"/>
      <path id="path320" d="M69.564-282.907l-4.939-2.877h0l4.939,2.877h0" fill="#42bfa8"/>
      <path id="path322" d="M69.8-142.053l-.088-.029A1.93,1.93,0,0,1,68.6-143.84V-279.655a6.679,6.679,0,0,1,.963-3.244l0-.008h0v.012a6.68,6.68,0,0,0-.963,3.244v135.8a1.921,1.921,0,0,0,1.2,1.792" fill="#14b099"/>
      <path id="path324" d="M362.327-175.173v10.16l39.137,42.421v-10.161l-39.137-42.42" fill="#26b6a6"/>
      <path id="path326" d="M401.464-122.592l-13.137-14.24.78-9.315,12.357,13.394v10.161m-12.357-23.554-15.193-6.308-11.587-12.559v-10.16l26.78,29.027" fill="#01a9d5"/>
      <path id="path328" d="M405.243-167.464v-10.16l-3.779,44.871v10.161l3.779-44.872" fill="#26b6a6"/>
      <path id="path330" d="M401.464-122.592v-10.161l3.779-44.871v10.16l-3.779,44.872" fill="#14b099"/>
      <path id="path332" d="M273.434-106.672c-45.62-3.827-87.486-22.124-108.1-48.785l.781-9.32,16.044-3.691c20.981,27.131,72.311,44.3,122.052,40.817,29.435-2.059,54.837-11.1,69.7-24.809l15.2,6.313-.781,9.32c-18.616,17.174-47.963,27.968-82.634,30.395a211.224,211.224,0,0,1-32.257-.24" fill="#26b6a6"/>
      <path id="path334" d="M388.327-136.832h0l.78-9.315h0l-.78,9.315" fill="#0aac94"/>
      <path id="path336" d="M291.191-105.928c-5.956,0-11.888-.253-17.757-.744-45.62-3.827-87.486-22.124-108.1-48.785l.781-9.32,16.044-3.691C201.326-143.68,245.833-127.2,291.314-127.2q6.444,0,12.893-.448c29.435-2.059,54.837-11.1,69.7-24.809l15.2,6.313-.78,9.315v.005c-18.616,17.174-47.962,27.968-82.634,30.395q-7.252.505-14.5.5" fill="#01a9d5"/>
      <path id="path338" d="M405.243-177.624l-42.916,2.451,12.357,13.393c-14.859,13.707-40.261,22.751-69.7,24.809-49.741,3.487-101.07-13.687-122.052-40.817l-16.825,13.011c20.617,26.661,62.484,44.96,108.1,48.784a211.154,211.154,0,0,0,32.257.243c34.672-2.427,64.017-13.221,82.634-30.4l12.357,13.395,3.779-44.872" fill="#01bcec"/>
    </g>
  </g>
</svg>
